<svg xmlns="http://www.w3.org/2000/svg" width="735.5674" height="639.0441" viewBox="0 0 735.5674 639.0441"><defs><style>.cls-1{fill:#fff;}</style></defs><title>1Zasób 3doskonałość - ikona</title><g id="Warstwa_2" data-name="Warstwa 2"><g id="Warstwa_1-2" data-name="Warstwa 1"><path class="cls-1" d="M570.4424,146.4832c1.6974-10.2472,9.3444-17.2905,19.7658-21.278a87.54,87.54,0,0,0-4.0584-17.4769c-11.1139,1.0222-19.0438-4.58-25.0908-13.0268s-6.8366-17.4394-2.2845-27.6291a87.4713,87.4713,0,0,0-15.2365-9.4772c-7.1342,8.5809-18.2216,13.2237-28.4708,11.526C504.82,67.4237,495.8219,59.4537,491.8337,49.03a87.4191,87.4191,0,0,0-17.4767,4.0575c1.0214,11.1127-2.6234,19.3686-11.0717,25.4174-8.4479,6.0468-17.7641,8.7911-27.9529,4.2411a87.5,87.5,0,0,0-9.477,15.2338c8.5788,7.1348,13.5464,16.2678,11.8489,26.515s-9.6687,19.2471-20.09,23.2344a87.5211,87.5211,0,0,0,4.0583,17.4779c11.1139-1.0222,19.37,2.6236,25.4164,11.0715,6.0451,8.4476,6.8349,17.4381,2.2849,27.6271a87.283,87.283,0,0,0,15.2367,9.4774c7.1357-8.5788,18.2214-13.2227,28.4685-11.5243,10.2491,1.6978,19.2473,9.6676,23.2338,20.0888a87.4125,87.4125,0,0,0,17.4808-4.0588c-1.0217-11.111,2.6211-19.3672,11.069-25.414s17.7624-8.7925,27.9512-4.2414a87.5313,87.5313,0,0,0,9.4774-15.2358C573.7124,165.8633,568.7449,156.73,570.4424,146.4832Zm-72.2891,24.7441A36.2248,36.2248,0,1,1,539.81,141.4089,36.2245,36.2245,0,0,1,498.1533,171.2273Z"/><path class="cls-1" d="M423.65,219.3242c0-10.3869,6.3932-18.5852,16.0229-24.2222a87.5436,87.5436,0,0,0-6.86-16.5787c-10.7973,2.8247-19.5361-1.4061-26.8822-8.7513s-9.5948-16.0876-6.7691-26.8842a87.47,87.47,0,0,0-16.58-6.86c-5.636,9.6315-15.8155,16.0239-26.2044,16.0239-10.3868,0-20.5664-6.3924-26.2044-16.0239a87.4316,87.4316,0,0,0-16.5787,6.8591c2.8237,10.7964.5771,19.5369-6.769,26.885-7.3462,7.3462-16.0887,11.576-26.8841,8.7523a87.5,87.5,0,0,0-6.86,16.5777c9.6294,5.637,16.0228,13.8353,16.0228,24.2222s-6.3934,20.5684-16.0228,26.2052a87.5188,87.5188,0,0,0,6.86,16.58c10.7974-2.8247,19.5379-.5771,26.8841,6.769,7.3443,7.3461,9.5927,16.0867,6.769,26.8823a87.275,87.275,0,0,0,16.5807,6.86c5.6378-9.63,15.8156-16.0228,26.2024-16.0218,10.3889,0,20.5684,6.3922,26.2044,16.0218a87.4085,87.4085,0,0,0,16.5825-6.861c-2.8237-10.7946-.5791-19.5352,6.7671-26.8813s16.0866-11.577,26.8822-8.7522a87.5293,87.5293,0,0,0,6.86-16.58C430.0434,237.9094,423.65,229.711,423.65,219.3242Zm-67.2734,36.2251A36.2248,36.2248,0,1,1,392.6,219.3242,36.2245,36.2245,0,0,1,356.3768,255.5493Z"/><path class="cls-1" d="M322.3282,83.2962c0-10.3868,6.3932-18.5852,16.0229-24.2221a87.5472,87.5472,0,0,0-6.86-16.5788c-10.7973,2.8248-19.5361-1.4061-26.8823-8.7512S295.014,17.6564,297.84,6.86A87.4627,87.4627,0,0,0,281.2592,0c-5.636,9.6314-15.8156,16.0238-26.2044,16.0238C244.668,16.0238,234.4884,9.6314,228.85,0a87.4247,87.4247,0,0,0-16.5787,6.859c2.8237,10.7964.5771,19.537-6.769,26.8851-7.3462,7.3461-16.0887,11.576-26.8841,8.7522a87.5041,87.5041,0,0,0-6.86,16.5778c9.6294,5.6369,16.0228,13.8353,16.0228,24.2221s-6.3934,20.5684-16.0228,26.2052a87.5188,87.5188,0,0,0,6.86,16.58c10.7974-2.8247,19.5379-.5771,26.8841,6.769,7.3443,7.3462,9.5927,16.0867,6.769,26.8823a87.2818,87.2818,0,0,0,16.5807,6.86c5.6378-9.63,15.8156-16.0229,26.2024-16.0219,10.3888,0,20.5684,6.3922,26.2044,16.0219a87.4153,87.4153,0,0,0,16.5825-6.8611c-2.8237-10.7946-.5791-19.5351,6.767-26.8813s16.0867-11.5769,26.8823-8.7522a87.5257,87.5257,0,0,0,6.86-16.58C328.7214,101.8814,322.3282,93.6831,322.3282,83.2962Zm-67.2734,36.2252A36.2248,36.2248,0,1,1,291.278,83.2962,36.2246,36.2246,0,0,1,255.0548,119.5214Z"/><path class="cls-1" d="M.4551,486.4191A1.4951,1.4951,0,0,1,0,485.3146V397.4337a1.5011,1.5011,0,0,1,.4551-1.1044,1.5046,1.5046,0,0,1,1.1054-.4551h26.91q12.6079,0,20.2148,7.02,7.6056,7.0211,7.6045,18.7207v39.5195q0,11.7-7.6045,18.7207t-20.2148,7.02H1.5605A1.4973,1.4973,0,0,1,.4551,486.4191Zm15.2754-12.5449,12.87-.13a11.3692,11.3692,0,0,0,8.97-3.835q3.3793-3.8334,3.64-10.4648V423.3039q0-6.63-3.4444-10.5293a11.6267,11.6267,0,0,0-9.165-3.9h-12.87a.5748.5748,0,0,0-.65.65v63.6992A.5737.5737,0,0,0,15.7305,473.8742Z"/><path class="cls-1" d="M80.21,484.5343a24.6341,24.6341,0,0,1-10.14-9.9453,30.1225,30.1225,0,0,1-3.5752-14.8847v-36.66A29.86,29.86,0,0,1,70.07,408.2892a24.6347,24.6347,0,0,1,10.14-9.9453,31.6331,31.6331,0,0,1,15.1455-3.51,31.9242,31.9242,0,0,1,15.2744,3.51,25.0662,25.0662,0,0,1,10.2051,9.9453,29.46,29.46,0,0,1,3.6406,14.7549v36.66a29.7173,29.7173,0,0,1-3.6406,14.8847,25.0656,25.0656,0,0,1-10.2051,9.9453,31.923,31.923,0,0,1-15.2744,3.51A31.632,31.632,0,0,1,80.21,484.5343Zm25.3505-13.5849a14.8842,14.8842,0,0,0,3.835-10.5948v-37.7a15.0667,15.0667,0,0,0-3.835-10.7255,13.3242,13.3242,0,0,0-10.205-4.0948,12.9529,12.9529,0,0,0-10.01,4.0948q-3.7734,4.0956-3.77,10.7255v37.7a15.0168,15.0168,0,0,0,3.77,10.5948,12.9528,12.9528,0,0,0,10.01,4.0947A13.3241,13.3241,0,0,0,105.5605,470.9494Z"/><path class="cls-1" d="M147.627,484.86a23.3222,23.3222,0,0,1-10.0752-8.71,23.9148,23.9148,0,0,1-3.5752-13.0655v-3.38a1.5537,1.5537,0,0,1,1.5605-1.5606h11.7a1.5539,1.5539,0,0,1,1.56,1.5606v2.6a11.6733,11.6733,0,0,0,3.9,9.1005q3.8994,3.51,10.5293,3.51,6.11,0,9.36-3.12a10.84,10.84,0,0,0,3.25-8.19,10.0948,10.0948,0,0,0-1.82-6.0459,18.75,18.75,0,0,0-5.1348-4.68q-3.3149-2.1445-10.205-5.7852a136.7722,136.7722,0,0,1-12.74-7.41,29.1447,29.1447,0,0,1-8.125-8.3193,22.0772,22.0772,0,0,1-3.3144-12.3506q0-11.1782,7.4746-17.68,7.4736-6.4995,19.6953-6.5a33.5862,33.5862,0,0,1,14.95,3.1846,23.3458,23.3458,0,0,1,10.01,9.0352,25.5237,25.5237,0,0,1,3.51,13.3906v2.7295a1.5539,1.5539,0,0,1-1.5595,1.5605h-11.7a1.5539,1.5539,0,0,1-1.5606-1.5605v-2.47a12.288,12.288,0,0,0-3.7695-9.2305q-3.7721-3.6372-10.14-3.64-5.5913,0-8.8408,2.9248a11.6337,11.6337,0,0,0-1.56,14.1055,17.5748,17.5748,0,0,0,5.1348,4.68q3.4438,2.2119,10.4648,5.72,9.36,5.332,13.78,8.32a26.6179,26.6179,0,0,1,7.4756,7.7354,21.0689,21.0689,0,0,1,3.0547,11.6348q0,11.44-7.67,18.2-7.6729,6.76-20.54,6.76A35.1154,35.1154,0,0,1,147.627,484.86Z"/><path class="cls-1" d="M201.627,486.4191a1.4951,1.4951,0,0,1-.4551-1.1045V397.4337a1.5538,1.5538,0,0,1,1.56-1.56h11.96a1.5539,1.5539,0,0,1,1.5606,1.56v37.44a.52.52,0,0,0,.26.52c.1729.0879.3457,0,.52-.26l26.6494-38.22a2.0386,2.0386,0,0,1,1.82-1.04h13.13a1.289,1.289,0,0,1,1.2354.5849,1.27,1.27,0,0,1-.1953,1.3653l-24.57,36.53a1.6106,1.6106,0,0,0,0,.9092l26.3906,49.79a2.0272,2.0272,0,0,1,.26.78c0,.6944-.4346,1.04-1.3,1.04H247.1914a2.0972,2.0972,0,0,1-1.9492-1.17l-20.54-38.74q-.1319-.39-.3907-.39a.7461.7461,0,0,0-.5195.26l-7.28,10.01a1.977,1.977,0,0,0-.26.78v27.69a1.5539,1.5539,0,0,1-1.5606,1.56h-11.96A1.4951,1.4951,0,0,1,201.627,486.4191Z"/><path class="cls-1" d="M279.51,484.5343a24.6312,24.6312,0,0,1-10.1407-9.9453,30.134,30.134,0,0,1-3.5742-14.8847v-36.66a29.8716,29.8716,0,0,1,3.5742-14.7549,24.6318,24.6318,0,0,1,10.1407-9.9453,34.711,34.711,0,0,1,30.42,0,25.0784,25.0784,0,0,1,10.2051,9.9453,29.4688,29.4688,0,0,1,3.64,14.7549v36.66a29.7262,29.7262,0,0,1-3.64,14.8847,25.0778,25.0778,0,0,1-10.2051,9.9453,34.711,34.711,0,0,1-30.42,0Zm25.35-13.5849a14.88,14.88,0,0,0,3.8349-10.5948v-37.7a15.0627,15.0627,0,0,0-3.8349-10.7255,13.3244,13.3244,0,0,0-10.2051-4.0948,12.9544,12.9544,0,0,0-10.01,4.0948q-3.7719,4.0956-3.7695,10.7255v37.7a15.0207,15.0207,0,0,0,3.7695,10.5948,12.9543,12.9543,0,0,0,10.01,4.0947A13.3243,13.3243,0,0,0,304.8594,470.9494Z"/><path class="cls-1" d="M380.8037,396.3293a1.5046,1.5046,0,0,1,1.1055-.4551h11.96a1.5538,1.5538,0,0,1,1.56,1.56v87.8809a1.5538,1.5538,0,0,1-1.56,1.56h-12.61a2.0047,2.0047,0,0,1-1.82-1.17l-28.34-58.24c-.1748-.26-.3466-.3672-.5195-.3252-.1748.0449-.26.24-.26.585l.13,57.5908a1.5539,1.5539,0,0,1-1.5605,1.56h-11.96a1.5538,1.5538,0,0,1-1.56-1.56V397.4337a1.5538,1.5538,0,0,1,1.56-1.56h12.4805a1.84,1.84,0,0,1,1.8193,1.17l28.4707,58.5c.1729.26.3447.37.52.3252.1728-.043.26-.2373.26-.585l-.13-57.8506A1.5011,1.5011,0,0,1,380.8037,396.3293Z"/><path class="cls-1" d="M455.1377,485.5744l-3.38-13.91a.6174.6174,0,0,0-.65-.52h-26.78a.614.614,0,0,0-.6495.52l-3.25,13.91a1.7116,1.7116,0,0,1-1.82,1.3h-12.35q-1.6918,0-1.3-1.69l23.6592-88.01a1.7127,1.7127,0,0,1,1.82-1.3h14.82a1.7131,1.7131,0,0,1,1.8194,1.3l23.66,88.01.13.5206q0,1.17-1.43,1.17H456.958A1.71,1.71,0,0,1,455.1377,485.5744Zm-28.21-26.4551a.86.86,0,0,0,.52.1953h20.54a.8711.8711,0,0,0,.52-.1953.4775.4775,0,0,0,.13-.585l-10.66-42.6406c-.0869-.26-.2177-.39-.39-.39q-.2622,0-.3906.39l-10.3994,42.6406A.4714.4714,0,0,0,426.9277,459.1193Z"/><path class="cls-1" d="M502.7158,473.8742h35.88a1.5539,1.5539,0,0,1,1.5606,1.56v9.8809a1.5539,1.5539,0,0,1-1.5606,1.56h-50.05a1.5522,1.5522,0,0,1-1.56-1.56V459.8341a.525.525,0,0,0-.2607-.5195.425.425,0,0,0-.5195.13l-8.84,7.0195a1.7375,1.7375,0,0,1-1.04.3906,1.7857,1.7857,0,0,1-1.17-.65l-5.33-6.5a2.6936,2.6936,0,0,1-.52-1.04,1.8025,1.8025,0,0,1,.65-1.17l16.64-13.26a.8745.8745,0,0,0,.3906-.78V397.4337a1.5522,1.5522,0,0,1,1.56-1.56h11.96a1.5522,1.5522,0,0,1,1.56,1.56v33.41a.5216.5216,0,0,0,.2608.52.4225.4225,0,0,0,.52-.13l21.19-17.03a2.2187,2.2187,0,0,1,1.04-.39,1.8029,1.8029,0,0,1,1.17.6494l5.46,6.5a1.7368,1.7368,0,0,1,.39,1.04,1.7924,1.7924,0,0,1-.6494,1.17l-28.99,23.2705c-.26.0869-.3907.3467-.3907.7793v26A.5738.5738,0,0,0,502.7158,473.8742Z"/><path class="cls-1" d="M558.29,484.5343a24.631,24.631,0,0,1-10.1406-9.9453,30.1329,30.1329,0,0,1-3.5742-14.8847v-36.66a29.8705,29.8705,0,0,1,3.5742-14.7549,24.6316,24.6316,0,0,1,10.1406-9.9453,34.7112,34.7112,0,0,1,30.42,0,25.0776,25.0776,0,0,1,10.205,9.9453,29.4689,29.4689,0,0,1,3.64,14.7549v36.66a29.7263,29.7263,0,0,1-3.64,14.8847,25.0769,25.0769,0,0,1-10.205,9.9453,34.7112,34.7112,0,0,1-30.42,0Zm25.35-13.5849a14.88,14.88,0,0,0,3.8349-10.5948v-37.7a15.0627,15.0627,0,0,0-3.8349-10.7255,13.3246,13.3246,0,0,0-10.2051-4.0948,12.9544,12.9544,0,0,0-10.01,4.0948q-3.7719,4.0956-3.7695,10.7255v37.7a15.0207,15.0207,0,0,0,3.7695,10.5948,12.9543,12.9543,0,0,0,10.01,4.0947A13.3245,13.3245,0,0,0,583.64,470.9494Z"/><path class="cls-1" d="M625.7061,484.86a23.32,23.32,0,0,1-10.0743-8.71,23.9156,23.9156,0,0,1-3.5752-13.0655v-3.38a1.5539,1.5539,0,0,1,1.56-1.5606h11.7a1.5522,1.5522,0,0,1,1.56,1.5606v2.6a11.6766,11.6766,0,0,0,3.9,9.1005q3.8994,3.51,10.53,3.51,6.1085,0,9.3594-3.12a10.8369,10.8369,0,0,0,3.25-8.19,10.0942,10.0942,0,0,0-1.8193-6.0459,18.7518,18.7518,0,0,0-5.1348-4.68q-3.3164-2.1445-10.2051-5.7852a136.5176,136.5176,0,0,1-12.74-7.41,29.1447,29.1447,0,0,1-8.125-8.3193,22.0768,22.0768,0,0,1-3.3154-12.3506q0-11.1782,7.4756-17.68,7.4736-6.4995,19.6943-6.5a33.5862,33.5862,0,0,1,14.95,3.1846,23.34,23.34,0,0,1,10.01,9.0352,25.5149,25.5149,0,0,1,3.5107,13.3906v2.7295a1.5539,1.5539,0,0,1-1.5605,1.5605h-11.7a1.5539,1.5539,0,0,1-1.56-1.5605v-2.47a12.2888,12.2888,0,0,0-3.77-9.2305q-3.772-3.6372-10.14-3.64-5.5913,0-8.84,2.9248a11.6337,11.6337,0,0,0-1.56,14.1055,17.5619,17.5619,0,0,0,5.1348,4.68q3.4424,2.2119,10.4648,5.72,9.36,5.332,13.78,8.32a26.602,26.602,0,0,1,7.4746,7.7354,21.0689,21.0689,0,0,1,3.0547,11.6348q0,11.44-7.67,18.2-7.6714,6.76-20.54,6.76A35.1154,35.1154,0,0,1,625.7061,484.86Zm6.8906-97.8252a1.431,1.431,0,0,1,.13-1.3007l7.41-13.3887a2.1469,2.1469,0,0,1,1.95-1.041h9.75a1.286,1.286,0,0,1,1.2344.5859,1.2665,1.2665,0,0,1-.1953,1.3643l-9.23,13.2607a2.0378,2.0378,0,0,1-1.82,1.0391h-8.06C633.1592,387.5539,632.77,387.382,632.5967,387.0343Z"/><path class="cls-1" d="M692.0176,484.4689a24.6373,24.6373,0,0,1-10.0752-9.6846,28.4974,28.4974,0,0,1-3.5752-14.43V422.1339a28.1463,28.1463,0,0,1,3.5752-14.3652,24.3668,24.3668,0,0,1,10.0752-9.5547,31.9388,31.9388,0,0,1,14.95-3.38A32.461,32.461,0,0,1,721.917,398.15a24.2031,24.2031,0,0,1,10.0752,9.3593,27.1991,27.1991,0,0,1,3.5752,14.1055v.7793a1.73,1.73,0,0,1-.4551,1.1709,1.4179,1.4179,0,0,1-1.1055.5195l-12.09.5205a1.3789,1.3789,0,0,1-1.56-1.56v-1.56a13.4928,13.4928,0,0,0-3.7051-9.88,12.98,12.98,0,0,0-9.6845-3.7705,13.1423,13.1423,0,0,0-9.8155,3.7705,13.4931,13.4931,0,0,0-3.705,9.88v39.9092a12.7376,12.7376,0,0,0,13.52,13.52,13.1009,13.1009,0,0,0,9.6845-3.7051,13.2658,13.2658,0,0,0,3.7051-9.8154v-1.6894q0-1.43,1.56-1.43l12.09.5195a1.5539,1.5539,0,0,1,1.5606,1.56v.52a27.8923,27.8923,0,0,1-3.5752,14.2353,23.95,23.95,0,0,1-10.0752,9.4893,32.4623,32.4623,0,0,1-14.9492,3.3154A31.4239,31.4239,0,0,1,692.0176,484.4689Zm7.54-97.4346a1.431,1.431,0,0,1,.13-1.3007l7.41-13.3887a2.1462,2.1462,0,0,1,1.9492-1.041h9.75a1.2866,1.2866,0,0,1,1.2353.5859,1.2665,1.2665,0,0,1-.1953,1.3643l-9.23,13.2607a2.0376,2.0376,0,0,1-1.82,1.0391h-8.06C700.12,387.5539,699.73,387.382,699.5576,387.0343Z"/><path class="cls-1" d="M52.8066,635.5343A24.631,24.631,0,0,1,42.666,625.589a30.1329,30.1329,0,0,1-3.5742-14.8847v-36.66a29.8705,29.8705,0,0,1,3.5742-14.7549,24.6316,24.6316,0,0,1,10.1406-9.9453,31.63,31.63,0,0,1,15.1446-3.51,31.9285,31.9285,0,0,1,15.2754,3.51,25.0776,25.0776,0,0,1,10.205,9.9453,29.4689,29.4689,0,0,1,3.64,14.7549v36.66a29.7263,29.7263,0,0,1-3.64,14.8847,25.0769,25.0769,0,0,1-10.205,9.9453,31.9274,31.9274,0,0,1-15.2754,3.51A31.6283,31.6283,0,0,1,52.8066,635.5343Zm25.35-13.5849a14.88,14.88,0,0,0,3.8349-10.5948v-37.7a15.0627,15.0627,0,0,0-3.8349-10.7255,13.3246,13.3246,0,0,0-10.2051-4.0948,12.9544,12.9544,0,0,0-10.01,4.0948q-3.7719,4.0956-3.77,10.7255v37.7a15.0207,15.0207,0,0,0,3.77,10.5948,12.9543,12.9543,0,0,0,10.01,4.0947A13.3245,13.3245,0,0,0,78.1563,621.9494Z"/><path class="cls-1" d="M153.3994,550.1242a23.0505,23.0505,0,0,1,8.97,9.5547,30.34,30.34,0,0,1,3.1856,14.1054,28.87,28.87,0,0,1-3.1856,13.78,22.889,22.889,0,0,1-8.97,9.2949,26.0628,26.0628,0,0,1-13.1953,3.3145h-15.99a.5742.5742,0,0,0-.6494.65v35.49a1.5539,1.5539,0,0,1-1.5606,1.56h-11.96a1.5538,1.5538,0,0,1-1.5595-1.56V548.3039a1.5538,1.5538,0,0,1,1.56-1.56h30.03A25.9324,25.9324,0,0,1,153.3994,550.1242Zm-6.37,34.125q3.4423-3.8336,3.4453-10.2051,0-6.5-3.4453-10.4a11.6279,11.6279,0,0,0-9.165-3.8994h-13.65a.5735.5735,0,0,0-.6494.6494v27.04a.573.573,0,0,0,.6494.65h13.65A11.7165,11.7165,0,0,0,147.0293,584.2492Z"/><path class="cls-1" d="M228.1992,559.4191a1.5035,1.5035,0,0,1-1.1054.4551h-36.14a.5748.5748,0,0,0-.65.65V584.964a.5741.5741,0,0,0,.65.65h23.14a1.5539,1.5539,0,0,1,1.5605,1.56v9.88a1.5539,1.5539,0,0,1-1.5605,1.5605h-23.14a.5742.5742,0,0,0-.65.6494v24.96a.5737.5737,0,0,0,.65.65h36.14a1.5539,1.5539,0,0,1,1.5605,1.56v9.8809a1.5539,1.5539,0,0,1-1.5605,1.56h-50.31a1.5539,1.5539,0,0,1-1.5606-1.56V548.4337a1.5539,1.5539,0,0,1,1.5606-1.56h50.31a1.5539,1.5539,0,0,1,1.5605,1.56v9.8809A1.5024,1.5024,0,0,1,228.1992,559.4191Z"/><path class="cls-1" d="M280.6387,636.5744l-14.04-37.3106c-.1748-.3447-.39-.5195-.6494-.5195H254.7686a.5735.5735,0,0,0-.6495.6494v36.9209a1.5537,1.5537,0,0,1-1.56,1.56h-11.96a1.5537,1.5537,0,0,1-1.56-1.56V548.4337a1.5537,1.5537,0,0,1,1.56-1.56h30.03a25.7074,25.7074,0,0,1,13.13,3.3154,22.4851,22.4851,0,0,1,8.84,9.3594,29.7578,29.7578,0,0,1,3.12,13.8447,27.1428,27.1428,0,0,1-3.8995,14.69,21.3035,21.3035,0,0,1-10.66,8.84.6186.6186,0,0,0-.3906.91l15.3408,38.22a1.8467,1.8467,0,0,1,.13.78c0,.6944-.4346,1.04-1.3,1.04H282.459A1.7109,1.7109,0,0,1,280.6387,636.5744Zm-26.52-76.05v25.8691a.5731.5731,0,0,0,.6495.65h13.65a11.4076,11.4076,0,0,0,8.84-3.7051q3.3793-3.7046,3.38-9.8144,0-6.24-3.38-9.9453a11.4073,11.4073,0,0,0-8.84-3.7051h-13.65A.5742.5742,0,0,0,254.1191,560.5246Z"/><path class="cls-1" d="M354.1133,636.5744l-3.38-13.91a.6174.6174,0,0,0-.65-.5205h-26.78a.614.614,0,0,0-.6494.5205l-3.25,13.91a1.7116,1.7116,0,0,1-1.82,1.3h-12.35q-1.6918,0-1.3-1.69l23.6592-88.01a1.7127,1.7127,0,0,1,1.82-1.3h14.82a1.713,1.713,0,0,1,1.8193,1.3l23.66,88.01.13.5206q0,1.17-1.43,1.17H355.9336A1.71,1.71,0,0,1,354.1133,636.5744Zm-28.21-26.4551a.86.86,0,0,0,.52.1953h20.54a.8713.8713,0,0,0,.5205-.1953.4776.4776,0,0,0,.13-.585l-10.66-42.6406c-.0869-.26-.2177-.39-.39-.39q-.2622,0-.3906.39l-10.4,42.6406A.4714.4714,0,0,0,325.9033,610.1193Z"/><path class="cls-1" d="M389.3418,635.4689a24.6373,24.6373,0,0,1-10.0752-9.6846,28.4974,28.4974,0,0,1-3.5752-14.43V573.1339a28.1463,28.1463,0,0,1,3.5752-14.3652,24.3668,24.3668,0,0,1,10.0752-9.5547,31.9388,31.9388,0,0,1,14.95-3.38,32.461,32.461,0,0,1,14.9492,3.3155,24.2031,24.2031,0,0,1,10.0752,9.3593,27.1991,27.1991,0,0,1,3.5752,14.1055v.7793a1.73,1.73,0,0,1-.4551,1.1709,1.4177,1.4177,0,0,1-1.1054.5195l-12.09.52a1.3789,1.3789,0,0,1-1.56-1.5605v-1.56a13.4931,13.4931,0,0,0-3.705-9.88,12.9806,12.9806,0,0,0-9.6846-3.77,13.1419,13.1419,0,0,0-9.8154,3.77,13.4928,13.4928,0,0,0-3.7051,9.88v39.9092a12.7377,12.7377,0,0,0,13.52,13.5205,13.1013,13.1013,0,0,0,9.6846-3.7051,13.2661,13.2661,0,0,0,3.705-9.8154v-1.6894q0-1.43,1.56-1.43l12.09.5195a1.5539,1.5539,0,0,1,1.56,1.5605v.52a27.8923,27.8923,0,0,1-3.5752,14.2353,23.95,23.95,0,0,1-10.0752,9.4893,32.4623,32.4623,0,0,1-14.9492,3.3154A31.4239,31.4239,0,0,1,389.3418,635.4689Z"/><path class="cls-1" d="M461.2559,637.2892a1.4958,1.4958,0,0,1-.4551-1.1055v-35.1l-.13-.78-22.4893-51.6094a1.7889,1.7889,0,0,1-.1308-.78q0-1.0386,1.3008-1.04h12.7392a1.703,1.703,0,0,1,1.82,1.17l14.04,35.1q.39.9111.78,0l13.91-35.1a1.7012,1.7012,0,0,1,1.8193-1.17h12.87c.6054,0,.9951.1748,1.17.5195a1.6819,1.6819,0,0,1,0,1.3008l-22.62,51.6094-.13.78v35.1a1.5539,1.5539,0,0,1-1.56,1.5606h-11.83A1.4973,1.4973,0,0,1,461.2559,637.2892Z"/><path class="cls-1" d="M500.9189,631.7638q-7.541-7.1469-7.54-18.9795v-9.1006a1.5539,1.5539,0,0,1,1.5606-1.56h11.96a1.5538,1.5538,0,0,1,1.56,1.56v9.2305a13.0041,13.0041,0,0,0,3.4453,9.4248,12.13,12.13,0,0,0,9.165,3.5752,12.7891,12.7891,0,0,0,9.3594-3.5752,12.62,12.62,0,0,0,3.6406-9.4248V548.4337a1.5538,1.5538,0,0,1,1.56-1.56h11.83a1.5537,1.5537,0,0,1,1.5605,1.56v64.3506a26.3633,26.3633,0,0,1-3.5107,13.7149,23.767,23.767,0,0,1-9.88,9.165,31.5866,31.5866,0,0,1-14.56,3.25Q508.4585,638.9142,500.9189,631.7638Z"/><path class="cls-1" d="M607.3232,547.3293a1.5048,1.5048,0,0,1,1.1055-.4551h11.96a1.5537,1.5537,0,0,1,1.56,1.56v87.8809a1.5537,1.5537,0,0,1-1.56,1.56h-12.61a2.0047,2.0047,0,0,1-1.82-1.17l-28.34-58.24c-.1748-.26-.3467-.3672-.52-.3252-.1748.0449-.26.24-.26.585l.13,57.5908a1.5539,1.5539,0,0,1-1.5606,1.56h-11.96a1.5538,1.5538,0,0,1-1.56-1.56V548.4337a1.5538,1.5538,0,0,1,1.56-1.56h12.4805a1.84,1.84,0,0,1,1.8193,1.17l28.4708,58.5c.1728.26.3447.37.5195.3252.1728-.043.26-.2373.26-.585l-.13-57.8506A1.5014,1.5014,0,0,1,607.3232,547.3293Z"/><path class="cls-1" d="M681.6563,636.5744l-3.38-13.91a.6164.6164,0,0,0-.6494-.5205h-26.78a.6148.6148,0,0,0-.65.5205l-3.25,13.91a1.7112,1.7112,0,0,1-1.8193,1.3H632.7764q-1.69,0-1.3-1.69l23.66-88.01a1.7121,1.7121,0,0,1,1.82-1.3h14.8194a1.7134,1.7134,0,0,1,1.82,1.3l23.66,88.01.13.5206q0,1.17-1.43,1.17h-12.48A1.7109,1.7109,0,0,1,681.6563,636.5744Zm-28.21-26.4551a.8624.8624,0,0,0,.5205.1953h20.54a.8687.8687,0,0,0,.52-.1953.4765.4765,0,0,0,.13-.585l-10.66-42.6406q-.13-.39-.39-.39-.2622,0-.39.39l-10.4,42.6406A.4727.4727,0,0,0,653.4463,610.1193Z"/></g></g></svg>