<svg xmlns="http://www.w3.org/2000/svg" width="807.2221" height="663.7119" viewBox="0 0 807.2221 663.7119"><defs><style>.cls-1{fill:#fff;}</style></defs><title>1Zasób 1koncentracja-ikona</title><g id="Warstwa_2" data-name="Warstwa 2"><g id="Warstwa_1-2" data-name="Warstwa 1"><path class="cls-1" d="M422.2844,149.339c-21.8884-9.8582-44.6454-6.9279-52.3324,7.3722-8.2258,15.3023,3.92,37.8207,27.1282,50.2962s48.69,10.1839,56.9161-5.1184c5.9065-10.9879,1.3085-25.6961-10.3457-37.7355l-19.2659,18.7623a10.963,10.963,0,0,1-16.4276-14.42Z"/><path class="cls-1" d="M478.0759,130.6279l-14.3075,13.9335c32.62,27.3022,47.1576,64.2778,32.8268,90.9374-17.6569,32.8472-72.55,37.7837-122.3677,11.0045s-75.9813-75.2881-58.3246-108.1351,72.55-37.7837,122.3678-11.0045c.1072.0576.21.1193.3166.1771l11.6895-15.6294c-1.6308-.929-3.26-1.86-4.9277-2.7561C372.6443,70.073,292.53,77.2776,266.7613,125.2155s12.4161,118.734,85.1209,157.8164S504.7011,314.91,530.47,266.9715C552.0283,226.8667,528.8051,170.7757,478.0759,130.6279Z"/><path class="cls-1" d="M456.8835,115.8229l-11.6316,15.5522-16.0868,21.5091L414.07,173.0674a3.33,3.33,0,0,0,4.9893,4.38l18.9437-18.4487,19.72-19.2045,14.2194-13.8476,17.59-17.1307.011-.0108,42.516-2.6295,45.51-51.9288-51.2325,3.3749-7.29-6.3886L515.6726,0l-45.51,51.9287,2.7932,42.4044-.0109.0148Z"/><path class="cls-1" d="M.455,511.2168A1.4954,1.4954,0,0,1,0,510.1123V422.2314a1.5014,1.5014,0,0,1,.455-1.1044,1.5038,1.5038,0,0,1,1.105-.4551H13.52a1.5537,1.5537,0,0,1,1.56,1.56v37.44a.52.52,0,0,0,.26.5195c.1724.0879.3452,0,.52-.26l26.65-38.22a2.0382,2.0382,0,0,1,1.82-1.04H57.46a1.2885,1.2885,0,0,1,1.2354.5849,1.269,1.269,0,0,1-.1953,1.3653l-24.57,36.53a1.6017,1.6017,0,0,0,0,.9092l26.39,49.79a2.02,2.02,0,0,1,.26.78q0,1.0416-1.3,1.04H46.02a2.0979,2.0979,0,0,1-1.95-1.17l-20.54-38.74q-.1311-.39-.39-.39a.7471.7471,0,0,0-.52.26l-7.28,10.01a1.9805,1.9805,0,0,0-.26.78v27.69a1.5537,1.5537,0,0,1-1.56,1.56H1.56A1.4965,1.4965,0,0,1,.455,511.2168Z"/><path class="cls-1" d="M78.3379,509.332a24.6324,24.6324,0,0,1-10.14-9.9453A30.1277,30.1277,0,0,1,64.623,484.502v-36.66a29.8654,29.8654,0,0,1,3.5747-14.7549,24.633,24.633,0,0,1,10.14-9.9453,31.6311,31.6311,0,0,1,15.145-3.51,31.9262,31.9262,0,0,1,15.2749,3.51,25.0723,25.0723,0,0,1,10.2051,9.9453,29.4649,29.4649,0,0,1,3.64,14.7549v36.66a29.7223,29.7223,0,0,1-3.64,14.8847,25.0717,25.0717,0,0,1-10.2051,9.9453,31.9251,31.9251,0,0,1-15.2749,3.51A31.63,31.63,0,0,1,78.3379,509.332Zm25.35-13.5849a14.8824,14.8824,0,0,0,3.8349-10.5948v-37.7a15.0648,15.0648,0,0,0-3.8349-10.7255,13.3246,13.3246,0,0,0-10.2051-4.0948,12.9536,12.9536,0,0,0-10.01,4.0948q-3.7727,4.0956-3.77,10.7255v37.7a15.0188,15.0188,0,0,0,3.77,10.5948,12.9536,12.9536,0,0,0,10.01,4.0947A13.3245,13.3245,0,0,0,103.688,495.7471Z"/><path class="cls-1" d="M179.6323,421.127a1.5035,1.5035,0,0,1,1.105-.4551h11.96a1.5538,1.5538,0,0,1,1.56,1.56v87.8809a1.5538,1.5538,0,0,1-1.56,1.56h-12.61a2.0042,2.0042,0,0,1-1.82-1.17l-28.34-58.24c-.1748-.26-.3472-.3672-.52-.3252-.1748.0449-.26.24-.26.585l.13,57.5908a1.5538,1.5538,0,0,1-1.56,1.56h-11.96a1.5538,1.5538,0,0,1-1.56-1.56V422.2314a1.5538,1.5538,0,0,1,1.56-1.56h12.48a1.8415,1.8415,0,0,1,1.82,1.17l28.47,58.5c.1729.26.3452.37.52.3252.1729-.043.26-.2373.26-.585l-.13-57.8506A1.5011,1.5011,0,0,1,179.6323,421.127Z"/><path class="cls-1" d="M219.6328,509.2666a24.64,24.64,0,0,1-10.0752-9.6846,28.5022,28.5022,0,0,1-3.5747-14.43V446.9316a28.1511,28.1511,0,0,1,3.5747-14.3652,24.37,24.37,0,0,1,10.0752-9.5547,31.94,31.94,0,0,1,14.95-3.38,32.4632,32.4632,0,0,1,14.95,3.3155,24.2061,24.2061,0,0,1,10.0752,9.3593,27.2037,27.2037,0,0,1,3.5747,14.1055v.7793a1.732,1.732,0,0,1-.4546,1.1709,1.4187,1.4187,0,0,1-1.1055.5195l-12.09.5205a1.3792,1.3792,0,0,1-1.56-1.5605v-1.56a13.4908,13.4908,0,0,0-3.7051-9.88,12.98,12.98,0,0,0-9.6845-3.7705,13.1439,13.1439,0,0,0-9.8155,3.7705,13.4928,13.4928,0,0,0-3.7045,9.88v39.9092a12.7368,12.7368,0,0,0,13.52,13.5205,13.1,13.1,0,0,0,9.6845-3.7051,13.2638,13.2638,0,0,0,3.7051-9.8154V484.502q0-1.43,1.56-1.43l12.09.5195a1.553,1.553,0,0,1,1.56,1.5605v.52a27.897,27.897,0,0,1-3.5747,14.2353,23.9527,23.9527,0,0,1-10.0752,9.4893,32.4644,32.4644,0,0,1-14.95,3.3154A31.4253,31.4253,0,0,1,219.6328,509.2666Z"/><path class="cls-1" d="M326.8945,433.2168a1.5026,1.5026,0,0,1-1.105.4551h-36.14a.5745.5745,0,0,0-.65.65v24.4394a.5737.5737,0,0,0,.65.65h23.14a1.5538,1.5538,0,0,1,1.56,1.56v9.88a1.5539,1.5539,0,0,1-1.56,1.56h-23.14a.5738.5738,0,0,0-.65.6494v24.96a.5734.5734,0,0,0,.65.65h36.14a1.5538,1.5538,0,0,1,1.56,1.56v9.8809a1.5538,1.5538,0,0,1-1.56,1.56H275.48a1.5538,1.5538,0,0,1-1.56-1.56V422.2314a1.5538,1.5538,0,0,1,1.56-1.56h50.31a1.5538,1.5538,0,0,1,1.56,1.56v9.8809A1.5028,1.5028,0,0,1,326.8945,433.2168Z"/><path class="cls-1" d="M383.1045,421.127a1.5035,1.5035,0,0,1,1.1049-.4551h11.96a1.5538,1.5538,0,0,1,1.56,1.56v87.8809a1.5538,1.5538,0,0,1-1.56,1.56H383.56a2.0043,2.0043,0,0,1-1.82-1.17l-28.34-58.24c-.1748-.26-.3472-.3672-.52-.3252-.1748.0449-.26.24-.26.585l.13,57.5908a1.5538,1.5538,0,0,1-1.56,1.56H339.23a1.5538,1.5538,0,0,1-1.56-1.56V422.2314a1.5538,1.5538,0,0,1,1.56-1.56h12.48a1.8415,1.8415,0,0,1,1.82,1.17l28.47,58.5c.1728.26.3452.37.52.3252.1728-.043.26-.2373.26-.585l-.13-57.8506A1.5011,1.5011,0,0,1,383.1045,421.127Z"/><path class="cls-1" d="M466.2133,421.127a1.51,1.51,0,0,1,.4546,1.1044v10.0108a1.553,1.553,0,0,1-1.5595,1.56h-20.15a.5745.5745,0,0,0-.65.65v75.66a1.5538,1.5538,0,0,1-1.56,1.56h-11.96a1.5538,1.5538,0,0,1-1.56-1.56v-75.66a.5753.5753,0,0,0-.65-.65h-19.37a1.5538,1.5538,0,0,1-1.56-1.56V422.2314a1.5538,1.5538,0,0,1,1.56-1.56h55.9A1.51,1.51,0,0,1,466.2133,421.127Z"/><path class="cls-1" d="M518.1723,510.3721l-14.04-37.3106c-.1748-.3447-.39-.52-.65-.52h-11.18a.5738.5738,0,0,0-.65.6494v36.9209a1.5538,1.5538,0,0,1-1.56,1.56h-11.96a1.5538,1.5538,0,0,1-1.56-1.56V422.2314a1.5538,1.5538,0,0,1,1.56-1.56h30.03a25.7093,25.7093,0,0,1,13.13,3.3154,22.4859,22.4859,0,0,1,8.84,9.3594,29.7578,29.7578,0,0,1,3.12,13.8447,27.1387,27.1387,0,0,1-3.9,14.69,21.3,21.3,0,0,1-10.66,8.84.6183.6183,0,0,0-.39.91l15.34,38.22a1.8451,1.8451,0,0,1,.13.78q0,1.0416-1.3,1.04h-12.48A1.7107,1.7107,0,0,1,518.1723,510.3721Zm-26.52-76.05v25.8691a.5733.5733,0,0,0,.65.65h13.65a11.4074,11.4074,0,0,0,8.84-3.7051q3.3787-3.7046,3.38-9.8144,0-6.24-3.38-9.9453a11.4071,11.4071,0,0,0-8.84-3.7051h-13.65A.5745.5745,0,0,0,491.6523,434.3223Z"/><path class="cls-1" d="M591.6469,510.3721l-3.38-13.91a.6169.6169,0,0,0-.65-.5205h-26.78a.6143.6143,0,0,0-.65.5205l-3.25,13.91a1.7114,1.7114,0,0,1-1.82,1.3h-12.35q-1.6913,0-1.3-1.69l23.66-88.01a1.7125,1.7125,0,0,1,1.82-1.3h14.82a1.7132,1.7132,0,0,1,1.82,1.3l23.66,88.01.13.5206q0,1.17-1.43,1.17h-12.48A1.7107,1.7107,0,0,1,591.6469,510.3721Zm-28.21-26.4551a.861.861,0,0,0,.52.1953h20.54a.87.87,0,0,0,.52-.1953.4769.4769,0,0,0,.13-.585l-10.66-42.6406c-.0869-.26-.2173-.39-.39-.39q-.2622,0-.39.39l-10.4,42.6406A.4721.4721,0,0,0,563.437,483.917Z"/><path class="cls-1" d="M626.8755,509.2666A24.64,24.64,0,0,1,616.8,499.582a28.5022,28.5022,0,0,1-3.5747-14.43V446.9316A28.1511,28.1511,0,0,1,616.8,432.5664a24.37,24.37,0,0,1,10.0752-9.5547,31.94,31.94,0,0,1,14.95-3.38,32.4633,32.4633,0,0,1,14.95,3.3155,24.2061,24.2061,0,0,1,10.0752,9.3593,27.2037,27.2037,0,0,1,3.5747,14.1055v.7793a1.732,1.732,0,0,1-.4546,1.1709,1.4187,1.4187,0,0,1-1.1055.5195l-12.09.5205a1.3792,1.3792,0,0,1-1.56-1.5605v-1.56a13.4912,13.4912,0,0,0-3.7051-9.88,12.98,12.98,0,0,0-9.6846-3.7705,13.1435,13.1435,0,0,0-9.8154,3.7705,13.4928,13.4928,0,0,0-3.7046,9.88v39.9092a12.737,12.737,0,0,0,13.52,13.5205,13.1,13.1,0,0,0,9.6846-3.7051,13.2642,13.2642,0,0,0,3.7051-9.8154V484.502q0-1.43,1.56-1.43l12.09.5195a1.553,1.553,0,0,1,1.56,1.5605v.52a27.897,27.897,0,0,1-3.5747,14.2353,23.9527,23.9527,0,0,1-10.0752,9.4893,32.4645,32.4645,0,0,1-14.95,3.3154A31.4252,31.4252,0,0,1,626.8755,509.2666Z"/><path class="cls-1" d="M686.1284,505.5615q-7.5411-7.1469-7.54-18.98v-9.1006a1.5538,1.5538,0,0,1,1.56-1.56h11.96a1.5538,1.5538,0,0,1,1.56,1.56v9.2305a13.0064,13.0064,0,0,0,3.4448,9.4248,12.1312,12.1312,0,0,0,9.1651,3.5752,12.7908,12.7908,0,0,0,9.36-3.5752,12.6211,12.6211,0,0,0,3.64-9.4248V422.2314a1.5538,1.5538,0,0,1,1.56-1.56h11.83a1.5538,1.5538,0,0,1,1.56,1.56V486.582a26.3621,26.3621,0,0,1-3.51,13.7149,23.7658,23.7658,0,0,1-9.88,9.165,31.59,31.59,0,0,1-14.56,3.25Q693.6675,512.7119,686.1284,505.5615Z"/><path class="cls-1" d="M791.4922,510.3721l-3.38-13.91a.6169.6169,0,0,0-.65-.5205h-26.78a.6143.6143,0,0,0-.65.5205l-3.25,13.91a1.7114,1.7114,0,0,1-1.82,1.3h-12.35q-1.6913,0-1.3-1.69l23.66-88.01a1.7125,1.7125,0,0,1,1.82-1.3h14.82a1.7132,1.7132,0,0,1,1.82,1.3l23.66,88.01.13.5206q0,1.17-1.43,1.17h-12.48A1.7105,1.7105,0,0,1,791.4922,510.3721Zm-28.21-26.4551a.861.861,0,0,0,.52.1953h20.54a.87.87,0,0,0,.52-.1953.4771.4771,0,0,0,.13-.585l-10.66-42.6406c-.0869-.26-.2173-.39-.39-.39q-.2622,0-.39.39l-10.4,42.6406A.4721.4721,0,0,0,763.2822,483.917Z"/><path class="cls-1" d="M135.0488,572.127a1.5035,1.5035,0,0,1,1.105-.4551h11.96a1.5538,1.5538,0,0,1,1.56,1.5595v87.8809a1.5538,1.5538,0,0,1-1.56,1.56h-12.61a2.0042,2.0042,0,0,1-1.82-1.17l-28.34-58.24c-.1748-.26-.3472-.3672-.52-.3252-.1748.0449-.26.24-.26.585l.13,57.5908a1.5538,1.5538,0,0,1-1.56,1.56h-11.96a1.5538,1.5538,0,0,1-1.56-1.56V573.2314a1.5538,1.5538,0,0,1,1.56-1.5595h12.48a1.8415,1.8415,0,0,1,1.82,1.17l28.47,58.5c.1729.26.3452.37.52.3252.1729-.043.26-.2373.26-.585l-.13-57.8506A1.5011,1.5011,0,0,1,135.0488,572.127Z"/><path class="cls-1" d="M209.3823,661.3721l-3.38-13.91a.6169.6169,0,0,0-.65-.52h-26.78a.6145.6145,0,0,0-.65.52l-3.25,13.91a1.7114,1.7114,0,0,1-1.82,1.3h-12.35q-1.6911,0-1.3-1.6905l23.66-88.01a1.7123,1.7123,0,0,1,1.82-1.3h14.82a1.7132,1.7132,0,0,1,1.82,1.3l23.66,88.01.13.5206q0,1.17-1.43,1.17h-12.48A1.7105,1.7105,0,0,1,209.3823,661.3721Zm-28.21-26.4551a.8613.8613,0,0,0,.52.1953h20.54a.87.87,0,0,0,.52-.1953.477.477,0,0,0,.13-.585l-10.66-42.6406c-.0869-.26-.2173-.39-.39-.39q-.2622,0-.39.39l-10.4,42.6406A.4721.4721,0,0,0,181.1723,634.917Z"/><path class="cls-1" d="M270.5449,662.2168a1.4951,1.4951,0,0,1-.4551-1.1045V573.2314a1.5538,1.5538,0,0,1,1.56-1.5595h11.96a1.5538,1.5538,0,0,1,1.56,1.5595v37.4405a.52.52,0,0,0,.26.5195c.1724.0879.3453,0,.52-.26l26.65-38.22a2.0381,2.0381,0,0,1,1.82-1.04h13.13a1.2884,1.2884,0,0,1,1.2353.5849,1.2688,1.2688,0,0,1-.1953,1.3653l-24.57,36.53a1.6017,1.6017,0,0,0,0,.9092l26.39,49.79a2.0184,2.0184,0,0,1,.26.78c0,.6944-.4346,1.04-1.3,1.04H316.11a2.0979,2.0979,0,0,1-1.95-1.17l-20.54-38.74q-.1311-.39-.39-.39a.7473.7473,0,0,0-.52.26l-7.28,10.01a1.98,1.98,0,0,0-.26.78v27.69a1.5538,1.5538,0,0,1-1.56,1.56H271.65A1.4962,1.4962,0,0,1,270.5449,662.2168Z"/><path class="cls-1" d="M340.3935,662.2168a1.4951,1.4951,0,0,1-.4551-1.1045V573.2314a1.5538,1.5538,0,0,1,1.56-1.5595h11.96a1.5538,1.5538,0,0,1,1.56,1.5595v75.79a.5734.5734,0,0,0,.65.65h35.75a1.5538,1.5538,0,0,1,1.56,1.5595v9.8809a1.5538,1.5538,0,0,1-1.56,1.56h-49.92A1.4964,1.4964,0,0,1,340.3935,662.2168Z"/><path class="cls-1" d="M402.8188,662.2168a1.4951,1.4951,0,0,1-.4551-1.1045V573.2314a1.5538,1.5538,0,0,1,1.56-1.5595h11.96a1.5538,1.5538,0,0,1,1.56,1.5595v87.8809a1.5538,1.5538,0,0,1-1.56,1.56h-11.96A1.4962,1.4962,0,0,1,402.8188,662.2168Z"/><path class="cls-1" d="M483.4052,584.2168a1.5022,1.5022,0,0,1-1.1049.4551H446.16a.5745.5745,0,0,0-.65.65v24.4394a.5738.5738,0,0,0,.65.65H469.3a1.5538,1.5538,0,0,1,1.56,1.56v9.88a1.5539,1.5539,0,0,1-1.56,1.5605H446.16a.5739.5739,0,0,0-.65.6494v24.96a.5734.5734,0,0,0,.65.65H482.3a1.5538,1.5538,0,0,1,1.56,1.5595v9.8809a1.5538,1.5538,0,0,1-1.56,1.56H431.99a1.5538,1.5538,0,0,1-1.56-1.56V573.2314a1.5538,1.5538,0,0,1,1.56-1.5595H482.3a1.5538,1.5538,0,0,1,1.56,1.5595v9.8809A1.5024,1.5024,0,0,1,483.4052,584.2168Z"/><path class="cls-1" d="M539.6152,572.127a1.5035,1.5035,0,0,1,1.105-.4551h11.96a1.5538,1.5538,0,0,1,1.56,1.5595v87.8809a1.5538,1.5538,0,0,1-1.56,1.56H540.07a2.0042,2.0042,0,0,1-1.82-1.17l-28.34-58.24c-.1748-.26-.3471-.3672-.52-.3252-.1748.0449-.26.24-.26.585l.13,57.5908a1.5538,1.5538,0,0,1-1.56,1.56H495.74a1.5538,1.5538,0,0,1-1.56-1.56V573.2314a1.5538,1.5538,0,0,1,1.56-1.5595h12.48a1.8415,1.8415,0,0,1,1.82,1.17l28.47,58.5c.1729.26.3452.37.52.3252.1729-.043.26-.2373.26-.585l-.13-57.8506A1.5011,1.5011,0,0,1,539.6152,572.127Z"/><path class="cls-1" d="M579.6157,660.2666a24.64,24.64,0,0,1-10.0752-9.6846,28.5022,28.5022,0,0,1-3.5747-14.43V597.9316a28.1511,28.1511,0,0,1,3.5747-14.3652,24.37,24.37,0,0,1,10.0752-9.5547,31.94,31.94,0,0,1,14.95-3.38,32.4632,32.4632,0,0,1,14.95,3.3155,24.2061,24.2061,0,0,1,10.0752,9.3593,27.2037,27.2037,0,0,1,3.5747,14.1055v.7793a1.732,1.732,0,0,1-.4546,1.1709,1.4187,1.4187,0,0,1-1.1055.5195l-12.09.52a1.3793,1.3793,0,0,1-1.56-1.56v-1.56a13.4911,13.4911,0,0,0-3.705-9.88,12.98,12.98,0,0,0-9.6846-3.77,13.1435,13.1435,0,0,0-9.8154,3.77,13.4924,13.4924,0,0,0-3.7046,9.88v39.9092a12.737,12.737,0,0,0,13.52,13.52,13.1007,13.1007,0,0,0,9.6846-3.7051,13.2642,13.2642,0,0,0,3.705-9.8154V635.502q0-1.43,1.56-1.43l12.09.5195a1.553,1.553,0,0,1,1.56,1.56v.52a27.897,27.897,0,0,1-3.5747,14.2353,23.9527,23.9527,0,0,1-10.0752,9.4893,32.4644,32.4644,0,0,1-14.95,3.3154A31.4253,31.4253,0,0,1,579.6157,660.2666Z"/><path class="cls-1" d="M634.3574,662.2168a1.4951,1.4951,0,0,1-.4551-1.1045V573.2314a1.5538,1.5538,0,0,1,1.56-1.5595h11.96a1.5538,1.5538,0,0,1,1.56,1.5595v87.8809a1.5538,1.5538,0,0,1-1.56,1.56h-11.96A1.4962,1.4962,0,0,1,634.3574,662.2168Z"/><path class="cls-1" d="M714.9438,584.2168a1.5026,1.5026,0,0,1-1.105.4551h-36.14a.5745.5745,0,0,0-.65.65v24.4394a.5737.5737,0,0,0,.65.65h23.14a1.5538,1.5538,0,0,1,1.56,1.56v9.88a1.5539,1.5539,0,0,1-1.56,1.5605h-23.14a.5738.5738,0,0,0-.65.6494v24.96a.5734.5734,0,0,0,.65.65h36.14a1.5538,1.5538,0,0,1,1.56,1.5595v9.8809a1.5538,1.5538,0,0,1-1.56,1.56h-50.31a1.5538,1.5538,0,0,1-1.56-1.56V573.2314a1.5538,1.5538,0,0,1,1.56-1.5595h50.31a1.5538,1.5538,0,0,1,1.56,1.5595v9.8809A1.5028,1.5028,0,0,1,714.9438,584.2168Z"/></g></g></svg>