<svg xmlns="http://www.w3.org/2000/svg" width="628.8028" height="613.8418" viewBox="0 0 628.8028 613.8418"><defs><style>.cls-1{fill:#fff;}</style></defs><title>1Zasób 4najwyższa jakosc - ikona</title><g id="Warstwa_2" data-name="Warstwa 2"><g id="Warstwa_1-2" data-name="Warstwa 1"><path class="cls-1" d="M368.6977,229.1906c-15.8025,7.244-34.8984,11.1946-56.9557,11.1946-82.3328,0-123.4859-55.98-123.4859-120.1926S229.4092,0,311.742,0c82.32,0,123.4727,55.98,123.4727,120.1926,0,27.6612-7.5693,53.6757-23.04,74.4182l23.04,23.0532L393.73,254.2158Zm-56.9557-44.785c3.944,0,7.9013-.332,11.5134-.6574L302.5128,162.999l39.1878-38.8557,25.6825,25.6891a84.7531,84.7531,0,0,0,5.2719-29.64c0-36.8771-21.0745-64.87-60.913-64.87-39.8517,0-60.9262,27.9932-60.9262,64.87C250.8158,157.0764,271.89,184.4056,311.742,184.4056Z"/><path class="cls-1" d="M45.4346,371.127a1.5048,1.5048,0,0,1,1.1055-.4551H58.5a1.5538,1.5538,0,0,1,1.56,1.56v87.8809a1.5538,1.5538,0,0,1-1.56,1.56H45.89a2.0047,2.0047,0,0,1-1.82-1.17l-28.34-58.24c-.1748-.26-.3466-.3672-.5195-.3252-.1748.0449-.26.24-.26.585l.13,57.5908a1.5539,1.5539,0,0,1-1.56,1.56H1.56a1.4953,1.4953,0,0,1-1.1045-.4551A1.4951,1.4951,0,0,1,0,460.1123V372.2314a1.5011,1.5011,0,0,1,.4551-1.1044,1.5026,1.5026,0,0,1,1.1045-.4551H14.04a1.84,1.84,0,0,1,1.8193,1.17l28.4707,58.5c.1729.26.3448.37.52.3252.1728-.043.26-.2373.26-.585l-.13-57.8506A1.5011,1.5011,0,0,1,45.4346,371.127Z"/><path class="cls-1" d="M119.7686,460.3721l-3.38-13.91a.6174.6174,0,0,0-.65-.5205h-26.78a.614.614,0,0,0-.65.5205l-3.25,13.91a1.7115,1.7115,0,0,1-1.82,1.3h-12.35q-1.6918,0-1.3-1.69l23.6592-88.01a1.7127,1.7127,0,0,1,1.82-1.3h14.82a1.7131,1.7131,0,0,1,1.8194,1.3l23.66,88.01.13.5206q0,1.17-1.43,1.17h-12.48A1.71,1.71,0,0,1,119.7686,460.3721Zm-28.21-26.4551a.86.86,0,0,0,.52.1953h20.54a.8711.8711,0,0,0,.52-.1953.4775.4775,0,0,0,.13-.585l-10.66-42.6406c-.0869-.26-.2177-.39-.39-.39q-.2622,0-.3906.39L91.4288,433.332A.4714.4714,0,0,0,91.5586,433.917Z"/><path class="cls-1" d="M147.418,455.5615q-7.541-7.1469-7.54-18.98v-9.1006a1.5538,1.5538,0,0,1,1.56-1.56h11.96a1.5539,1.5539,0,0,1,1.5606,1.56v9.2305a13.0077,13.0077,0,0,0,3.4443,9.4248,12.1325,12.1325,0,0,0,9.165,3.5752,12.7932,12.7932,0,0,0,9.36-3.5752,12.6226,12.6226,0,0,0,3.64-9.4248V372.2314a1.5539,1.5539,0,0,1,1.5606-1.56h11.83a1.5538,1.5538,0,0,1,1.5595,1.56V436.582a26.3628,26.3628,0,0,1-3.51,13.7149,23.767,23.767,0,0,1-9.88,9.165,31.5937,31.5937,0,0,1-14.5606,3.25Q154.9566,462.7119,147.418,455.5615Z"/><path class="cls-1" d="M225.6114,460.3721l-20.54-88.01v-.5205q0-1.17,1.4307-1.17h12.48a1.5592,1.5592,0,0,1,1.69,1.43l12.09,56.81q.1274.39.39.39.2594,0,.3906-.52l11.18-56.6806a1.4658,1.4658,0,0,1,1.69-1.43h11.31a1.5583,1.5583,0,0,1,1.69,1.43l12.0908,56.81q.1275.52.39.5195.2592,0,.39-.5195l11.44-56.81a1.5567,1.5567,0,0,1,1.69-1.43h11.96q1.8193,0,1.4307,1.69l-19.37,87.88a1.5579,1.5579,0,0,1-1.69,1.43H266.042a1.5558,1.5558,0,0,1-1.69-1.43l-11.96-58.63q-.1318-.391-.39-.3906-.2622,0-.3906.3906l-11.31,58.63a1.467,1.467,0,0,1-1.69,1.43h-11.31A1.6309,1.6309,0,0,1,225.6114,460.3721Z"/><path class="cls-1" d="M329.7022,461.0869a1.4958,1.4958,0,0,1-.4551-1.1055v-35.1l-.13-.78-22.49-51.6094a1.8043,1.8043,0,0,1-.13-.78q0-1.0386,1.3-1.04h12.74a1.7046,1.7046,0,0,1,1.82,1.17l14.04,35.1q.39.9111.7793,0l13.91-35.1a1.7016,1.7016,0,0,1,1.82-1.17h12.87c.6055,0,.9951.1748,1.17.5195a1.681,1.681,0,0,1,0,1.3008l-22.62,51.6094-.13.78v35.1a1.5539,1.5539,0,0,1-1.56,1.5606h-11.83A1.4951,1.4951,0,0,1,329.7022,461.0869Z"/><path class="cls-1" d="M375.5137,461.2168a1.4951,1.4951,0,0,1-.4551-1.1045v-10.79a3.86,3.86,0,0,1,.5206-1.95l36.53-62.92c.26-.52.085-.78-.52-.78h-34.97a1.5539,1.5539,0,0,1-1.5606-1.56v-9.8809a1.5539,1.5539,0,0,1,1.5606-1.56h50.57a1.5538,1.5538,0,0,1,1.56,1.56v10.79a3.8775,3.8775,0,0,1-.52,1.95l-36.53,62.92c-.26.5205-.0879.78.5195.78H427.19a1.5538,1.5538,0,0,1,1.56,1.56v9.8809a1.5538,1.5538,0,0,1-1.56,1.56h-50.57A1.4975,1.4975,0,0,1,375.5137,461.2168Zm19.8252-102.2451a9.2328,9.2328,0,0,1,6.63-15.86,8.7673,8.7673,0,0,1,6.5654,2.6006,9.1111,9.1111,0,0,1,2.5352,6.63,8.977,8.977,0,0,1-2.6006,6.63,8.8126,8.8126,0,0,1-6.5,2.6006A8.97,8.97,0,0,1,395.3389,358.9717Z"/><path class="cls-1" d="M450.2891,459.6572a23.3194,23.3194,0,0,1-10.0742-8.71,23.9148,23.9148,0,0,1-3.5752-13.0655v-3.38a1.5539,1.5539,0,0,1,1.56-1.5606h11.7a1.5522,1.5522,0,0,1,1.56,1.5606v2.6a11.6766,11.6766,0,0,0,3.9,9.1q3.8994,3.51,10.53,3.51,6.1085,0,9.3594-3.12a10.8369,10.8369,0,0,0,3.25-8.1895,10.0942,10.0942,0,0,0-1.8194-6.0459,18.7513,18.7513,0,0,0-5.1347-4.68q-3.3165-2.1446-10.2051-5.7852a136.4912,136.4912,0,0,1-12.74-7.41,29.1421,29.1421,0,0,1-8.125-8.3193,22.0768,22.0768,0,0,1-3.3155-12.3506q0-11.1782,7.4756-17.68,7.4736-6.4995,19.6944-6.5a33.5854,33.5854,0,0,1,14.95,3.1846,23.339,23.339,0,0,1,10.01,9.0352A25.515,25.515,0,0,1,492.8,395.2422v2.7295a1.5539,1.5539,0,0,1-1.5606,1.56h-11.7a1.5539,1.5539,0,0,1-1.56-1.56v-2.47a12.2888,12.2888,0,0,0-3.77-9.2305q-3.7719-3.6372-10.14-3.64-5.5914,0-8.84,2.9248a11.6334,11.6334,0,0,0-1.5595,14.1055,17.5627,17.5627,0,0,0,5.1347,4.68q3.4425,2.2119,10.4649,5.72,9.36,5.332,13.78,8.32a26.602,26.602,0,0,1,7.4746,7.7354,21.07,21.07,0,0,1,3.0547,11.6348q0,11.44-7.67,18.2t-20.54,6.76A35.1159,35.1159,0,0,1,450.2891,459.6572Z"/><path class="cls-1" d="M501.7159,461.2168a1.4951,1.4951,0,0,1-.4551-1.1045v-10.79a3.8684,3.8684,0,0,1,.5195-1.95l36.53-62.92q.39-.7807-.5195-.78H502.82a1.5538,1.5538,0,0,1-1.56-1.56v-9.8809a1.5538,1.5538,0,0,1,1.56-1.56h50.57a1.5539,1.5539,0,0,1,1.56,1.56v10.79a3.8693,3.8693,0,0,1-.52,1.95l-36.53,62.92q-.39.7808.52.78h34.97a1.5539,1.5539,0,0,1,1.56,1.56v9.8809a1.5539,1.5539,0,0,1-1.56,1.56H502.82A1.4951,1.4951,0,0,1,501.7159,461.2168Z"/><path class="cls-1" d="M613.0733,460.3721l-3.38-13.91a.6174.6174,0,0,0-.65-.5205h-26.78a.614.614,0,0,0-.6494.5205l-3.25,13.91a1.7116,1.7116,0,0,1-1.82,1.3h-12.35q-1.6918,0-1.3-1.69l23.6592-88.01a1.7127,1.7127,0,0,1,1.82-1.3h14.82a1.7129,1.7129,0,0,1,1.8193,1.3l23.66,88.01.13.5206q0,1.17-1.43,1.17h-12.48A1.71,1.71,0,0,1,613.0733,460.3721Zm-28.21-26.4551a.86.86,0,0,0,.52.1953h20.54a.8711.8711,0,0,0,.52-.1953.4775.4775,0,0,0,.13-.585l-10.66-42.6406c-.0869-.26-.2177-.39-.39-.39q-.2622,0-.3906.39L584.7334,433.332A.4716.4716,0,0,0,584.8633,433.917Z"/><path class="cls-1" d="M120.8672,606.5615q-7.5409-7.1469-7.54-18.98v-9.1006a1.5538,1.5538,0,0,1,1.56-1.5595h11.96a1.5539,1.5539,0,0,1,1.5606,1.5595v9.2305a13.0077,13.0077,0,0,0,3.4443,9.4248,12.1326,12.1326,0,0,0,9.1651,3.5752,12.7928,12.7928,0,0,0,9.36-3.5752,12.6227,12.6227,0,0,0,3.64-9.4248V523.2314a1.5537,1.5537,0,0,1,1.5605-1.5595h11.83a1.5537,1.5537,0,0,1,1.56,1.5595V587.582a26.3628,26.3628,0,0,1-3.51,13.7149,23.767,23.767,0,0,1-9.88,9.165,31.5933,31.5933,0,0,1-14.5605,3.25Q128.4058,613.7119,120.8672,606.5615Z"/><path class="cls-1" d="M226.2305,611.3721l-3.38-13.91a.6164.6164,0,0,0-.6494-.52h-26.78a.6148.6148,0,0,0-.65.52l-3.25,13.91a1.7113,1.7113,0,0,1-1.8194,1.3H177.3506q-1.69,0-1.3-1.6905l23.66-88.01a1.7121,1.7121,0,0,1,1.82-1.3h14.8193a1.7133,1.7133,0,0,1,1.82,1.3l23.66,88.01.13.5206q0,1.17-1.43,1.17h-12.48A1.711,1.711,0,0,1,226.2305,611.3721Zm-28.21-26.4551a.8624.8624,0,0,0,.52.1953h20.54a.8684.8684,0,0,0,.5195-.1953.4762.4762,0,0,0,.13-.585l-10.66-42.6406q-.1305-.39-.39-.39-.2622,0-.39.39l-10.4,42.6406A.4727.4727,0,0,0,198.0206,584.917Z"/><path class="cls-1" d="M251.8653,612.2168a1.4951,1.4951,0,0,1-.4551-1.1045V523.2314a1.5538,1.5538,0,0,1,1.56-1.5595h11.96a1.5539,1.5539,0,0,1,1.5606,1.5595v37.4405a.52.52,0,0,0,.26.5195c.1729.0879.3458,0,.5206-.26l26.6494-38.22a2.0383,2.0383,0,0,1,1.82-1.04h13.13a1.2889,1.2889,0,0,1,1.2353.5849,1.27,1.27,0,0,1-.1953,1.3653l-24.57,36.53a1.6106,1.6106,0,0,0,0,.9092l26.3906,49.79a2.0272,2.0272,0,0,1,.26.78c0,.6944-.4346,1.04-1.3,1.04H297.43a2.0972,2.0972,0,0,1-1.9492-1.17l-20.54-38.74q-.1318-.39-.3906-.39a.7463.7463,0,0,0-.52.26l-7.28,10.01a1.977,1.977,0,0,0-.26.78v27.69a1.5539,1.5539,0,0,1-1.5606,1.56H252.97A1.4951,1.4951,0,0,1,251.8653,612.2168Z"/><path class="cls-1" d="M329.7481,610.332a24.631,24.631,0,0,1-10.1406-9.9453,30.1329,30.1329,0,0,1-3.5742-14.8847v-36.66a29.8705,29.8705,0,0,1,3.5742-14.7549,24.6316,24.6316,0,0,1,10.1406-9.9453,34.711,34.711,0,0,1,30.42,0,25.0778,25.0778,0,0,1,10.2051,9.9453,29.4688,29.4688,0,0,1,3.64,14.7549v36.66a29.7262,29.7262,0,0,1-3.64,14.8847,25.0772,25.0772,0,0,1-10.2051,9.9453,34.711,34.711,0,0,1-30.42,0Zm25.35-13.5849a14.88,14.88,0,0,0,3.835-10.5948v-37.7a15.0623,15.0623,0,0,0-3.835-10.7255,13.3244,13.3244,0,0,0-10.2051-4.0948,12.9543,12.9543,0,0,0-10.01,4.0948q-3.772,4.0956-3.77,10.7255v37.7a15.02,15.02,0,0,0,3.77,10.5948,12.9542,12.9542,0,0,0,10.01,4.0947A13.3243,13.3243,0,0,0,355.0977,596.7471Z"/><path class="cls-1" d="M397.1641,610.6572a23.3194,23.3194,0,0,1-10.0742-8.71,23.9148,23.9148,0,0,1-3.5752-13.0655v-3.38a1.5539,1.5539,0,0,1,1.56-1.5606h11.7a1.5522,1.5522,0,0,1,1.56,1.5606v2.6a11.6766,11.6766,0,0,0,3.9,9.1005q3.8994,3.51,10.53,3.51,6.1085,0,9.3594-3.12a10.8369,10.8369,0,0,0,3.25-8.19,10.0942,10.0942,0,0,0-1.8194-6.0459,18.7513,18.7513,0,0,0-5.1347-4.68q-3.3165-2.1445-10.2051-5.7852a136.4912,136.4912,0,0,1-12.74-7.41,29.1421,29.1421,0,0,1-8.125-8.3193,22.0768,22.0768,0,0,1-3.3155-12.3506q0-11.1781,7.4756-17.68,7.4736-6.5,19.6944-6.5a33.5854,33.5854,0,0,1,14.95,3.1846,23.339,23.339,0,0,1,10.01,9.0352,25.515,25.515,0,0,1,3.5108,13.3906v2.73a1.5539,1.5539,0,0,1-1.5606,1.56h-11.7a1.5539,1.5539,0,0,1-1.56-1.56v-2.47a12.2888,12.2888,0,0,0-3.77-9.2305q-3.7719-3.6372-10.14-3.64-5.5914,0-8.84,2.9248a11.6334,11.6334,0,0,0-1.5595,14.1055,17.5627,17.5627,0,0,0,5.1347,4.68q3.4425,2.2119,10.4649,5.72,9.36,5.332,13.78,8.32a26.602,26.602,0,0,1,7.4746,7.7354,21.07,21.07,0,0,1,3.0547,11.6348q0,11.44-7.67,18.2t-20.54,6.76A35.1159,35.1159,0,0,1,397.1641,610.6572Zm6.8906-97.8252a1.4313,1.4313,0,0,1,.13-1.3007l7.41-13.3887a2.1468,2.1468,0,0,1,1.95-1.041h9.75a1.2858,1.2858,0,0,1,1.2343.5859,1.2663,1.2663,0,0,1-.1953,1.3643l-9.23,13.2607a2.0376,2.0376,0,0,1-1.82,1.0391h-8.06C404.6172,513.3516,404.2276,513.18,404.0547,512.832Z"/><path class="cls-1" d="M463.4756,610.2666A24.6446,24.6446,0,0,1,453.4,600.582a28.5081,28.5081,0,0,1-3.5742-14.43V547.9316A28.1568,28.1568,0,0,1,453.4,533.5664a24.3739,24.3739,0,0,1,10.0752-9.5547,31.942,31.942,0,0,1,14.95-3.38,32.465,32.465,0,0,1,14.95,3.3155,24.2079,24.2079,0,0,1,10.0752,9.3593,27.2073,27.2073,0,0,1,3.5742,14.1055v.7793a1.7334,1.7334,0,0,1-.4541,1.1709,1.419,1.419,0,0,1-1.1054.5195l-12.09.52a1.38,1.38,0,0,1-1.56-1.56v-1.56a13.4891,13.4891,0,0,0-3.7051-9.88,12.9789,12.9789,0,0,0-9.6846-3.77,13.145,13.145,0,0,0-9.8154,3.77,13.4925,13.4925,0,0,0-3.7041,9.88v39.9092a12.7362,12.7362,0,0,0,13.5195,13.52,13.1,13.1,0,0,0,9.6846-3.7051,13.2623,13.2623,0,0,0,3.7051-9.8154V585.502q0-1.43,1.56-1.43l12.09.5195a1.5522,1.5522,0,0,1,1.56,1.56v.52a27.9008,27.9008,0,0,1-3.5742,14.2353,23.9544,23.9544,0,0,1-10.0752,9.4893,32.4662,32.4662,0,0,1-14.95,3.3154A31.427,31.427,0,0,1,463.4756,610.2666Zm7.54-97.4346a1.431,1.431,0,0,1,.13-1.3007l7.41-13.3887a2.1479,2.1479,0,0,1,1.95-1.041h9.75a1.2876,1.2876,0,0,1,1.2354.5859,1.2683,1.2683,0,0,1-.1954,1.3643l-9.23,13.2607a2.0374,2.0374,0,0,1-1.8194,1.0391h-8.06C471.5782,513.3516,471.1885,513.18,471.0157,512.832Z"/></g></g></svg>