<svg xmlns="http://www.w3.org/2000/svg" width="694.3174" height="670.9543" viewBox="0 0 694.3174 670.9543"><defs><style>.cls-1{fill:#fff;}</style></defs><title>1Zasób 5wiarygodny pracodawca - ikona</title><g id="Warstwa_2" data-name="Warstwa 2"><g id="Warstwa_1-2" data-name="Warstwa 1"><path class="cls-1" d="M335.5,268.6852a16.5494,16.5494,0,0,1-13.496-6.9549L281.75,205.2993a16.5777,16.5777,0,1,1,26.9918-19.2542l24.2027,33.9288L437.6907,9.2124A16.5778,16.5778,0,1,1,467.3818,23.968L350.3451,259.481a16.5544,16.5544,0,0,1-13.5319,9.15C336.3633,268.6672,335.9314,268.6852,335.5,268.6852Z"/><path class="cls-1" d="M434.973,124.5l-13.5971,31.0384A96.7938,96.7938,0,0,1,431.89,198.8027a98.596,98.596,0,1,1-61.8215-90.8861l11.14-25.43A126.3447,126.3447,0,1,0,434.973,124.5Z"/><path class="cls-1" d="M31.9053,517.4846l-20.5391-88.01v-.5205c0-.78.4746-1.17,1.43-1.17H25.2764a1.5589,1.5589,0,0,1,1.6894,1.43l12.09,56.8105c.0859.26.2148.39.3906.39.1719,0,.3027-.1729.39-.52l11.18-56.6806a1.4662,1.4662,0,0,1,1.6905-1.43h11.31a1.56,1.56,0,0,1,1.6905,1.43l12.09,56.8105q.1275.52.39.5195.2592,0,.39-.5195l11.44-56.8105a1.5571,1.5571,0,0,1,1.6905-1.43h11.959q1.8194,0,1.4306,1.69l-19.37,87.88a1.557,1.557,0,0,1-1.6894,1.43h-11.7a1.5558,1.5558,0,0,1-1.69-1.43l-11.96-58.63c-.0869-.2607-.2178-.3906-.39-.3906q-.2622,0-.3906.3906l-11.31,58.63a1.4661,1.4661,0,0,1-1.69,1.43h-11.31A1.631,1.631,0,0,1,31.9053,517.4846Z"/><path class="cls-1" d="M115.1826,518.3293a1.4954,1.4954,0,0,1-.455-1.1045V429.3439a1.5537,1.5537,0,0,1,1.5605-1.56h11.96a1.5537,1.5537,0,0,1,1.56,1.56v87.8809a1.5537,1.5537,0,0,1-1.56,1.56h-11.96A1.4975,1.4975,0,0,1,115.1826,518.3293Z"/><path class="cls-1" d="M189.4385,517.4846l-3.38-13.91a.6164.6164,0,0,0-.6494-.5205H158.628a.614.614,0,0,0-.6495.5205l-3.25,13.91a1.7111,1.7111,0,0,1-1.8193,1.3H140.5586q-1.6919,0-1.3-1.6905l23.66-88.01a1.712,1.712,0,0,1,1.82-1.3h14.8193a1.7131,1.7131,0,0,1,1.8194,1.3l23.66,88.01.1309.5206q0,1.17-1.43,1.17h-12.48A1.71,1.71,0,0,1,189.4385,517.4846Zm-28.21-26.4551a.8606.8606,0,0,0,.52.1953h20.5391a.8691.8691,0,0,0,.5205-.1953.4763.4763,0,0,0,.13-.585l-10.66-42.6406q-.13-.39-.39-.39-.2622,0-.39.39l-10.4,42.6406A.4714.4714,0,0,0,161.2285,491.03Z"/><path class="cls-1" d="M256.2178,517.4846l-14.04-37.3106c-.1748-.3447-.39-.5195-.6495-.5195H230.3477a.5735.5735,0,0,0-.6494.6494v36.9209a1.5539,1.5539,0,0,1-1.5606,1.56h-11.96a1.5538,1.5538,0,0,1-1.56-1.56V429.3439a1.5538,1.5538,0,0,1,1.56-1.56h30.03a25.712,25.712,0,0,1,13.13,3.3154,22.4859,22.4859,0,0,1,8.84,9.3594,29.759,29.759,0,0,1,3.12,13.8447,27.1346,27.1346,0,0,1-3.9,14.69,21.2958,21.2958,0,0,1-10.66,8.84.6183.6183,0,0,0-.39.91l15.3408,38.22a1.8634,1.8634,0,0,1,.1289.78q0,1.0416-1.2988,1.04H258.0381A1.71,1.71,0,0,1,256.2178,517.4846Zm-26.52-76.05v25.8691a.573.573,0,0,0,.6494.65h13.65a11.4075,11.4075,0,0,0,8.84-3.7051q3.3794-3.7045,3.38-9.8144,0-6.24-3.38-9.9453a11.4072,11.4072,0,0,0-8.84-3.7051h-13.65A.5741.5741,0,0,0,229.6983,441.4348Z"/><path class="cls-1" d="M299.1807,518.1994a1.4958,1.4958,0,0,1-.4551-1.1055v-35.1l-.1289-.78-22.49-51.6094a1.7872,1.7872,0,0,1-.1309-.78q0-1.0386,1.3008-1.04h12.74a1.7044,1.7044,0,0,1,1.82,1.17l14.0391,35.1q.39.9111.78,0l13.91-35.1a1.7013,1.7013,0,0,1,1.8194-1.17h12.8711c.6054,0,.9941.1748,1.17.5195a1.69,1.69,0,0,1,0,1.3008l-22.6211,51.6094-.1289.78v35.1a1.5539,1.5539,0,0,1-1.5606,1.5606h-11.83A1.4973,1.4973,0,0,1,299.1807,518.1994Z"/><path class="cls-1" d="M355.5244,516.4445a24.4426,24.4426,0,0,1-10.0107-9.5547,27.8849,27.8849,0,0,1-3.5752-14.2353v-38.74a27.898,27.898,0,0,1,3.5752-14.2354,24.468,24.468,0,0,1,10.0107-9.5547,31.5465,31.5465,0,0,1,14.8848-3.38,32.4581,32.4581,0,0,1,14.9492,3.3155,24.3433,24.3433,0,0,1,10.0762,9.2949,26.1,26.1,0,0,1,3.5742,13.6494v2.99a1.5522,1.5522,0,0,1-1.56,1.56h-11.959a1.5522,1.5522,0,0,1-1.5606-1.56v-2.99a12.9286,12.9286,0,0,0-3.705-9.5547,13.2688,13.2688,0,0,0-9.8145-3.7051,12.8622,12.8622,0,0,0-9.6855,3.835,13.8915,13.8915,0,0,0-3.7051,10.0752v39.26a13.6145,13.6145,0,0,0,3.8359,10.0752,13.444,13.444,0,0,0,9.9444,3.8349q5.9779,0,9.5556-3.4453,3.5729-3.4423,3.5742-9.4248V483.6848a.5752.5752,0,0,0-.65-.65h-11.83a1.5538,1.5538,0,0,1-1.56-1.56v-9.49a1.5539,1.5539,0,0,1,1.56-1.5606h26a1.5539,1.5539,0,0,1,1.56,1.5606v20.28q0,12.8687-7.8,20.2149t-20.8,7.3447A31.5226,31.5226,0,0,1,355.5244,516.4445Z"/><path class="cls-1" d="M422.874,516.4445a24.6345,24.6345,0,0,1-10.14-9.9453,30.1333,30.1333,0,0,1-3.5752-14.8847v-36.66a29.871,29.871,0,0,1,3.5752-14.7549,24.6351,24.6351,0,0,1,10.14-9.9453,34.7112,34.7112,0,0,1,30.42,0,25.066,25.066,0,0,1,10.205,9.9453,29.459,29.459,0,0,1,3.6407,14.7549v36.66a29.7163,29.7163,0,0,1-3.6407,14.8847,25.0654,25.0654,0,0,1-10.205,9.9453,34.7112,34.7112,0,0,1-30.42,0ZM448.2246,502.86a14.88,14.88,0,0,0,3.835-10.5948v-37.7a15.0623,15.0623,0,0,0-3.835-10.7255,13.3242,13.3242,0,0,0-10.205-4.0948,12.9544,12.9544,0,0,0-10.01,4.0948q-3.772,4.0956-3.77,10.7255v37.7a15.0209,15.0209,0,0,0,3.77,10.5948,12.9543,12.9543,0,0,0,10.01,4.0947A13.3241,13.3241,0,0,0,448.2246,502.86Z"/><path class="cls-1" d="M479.2412,518.3293a1.495,1.495,0,0,1-.455-1.1045V429.3439a1.5537,1.5537,0,0,1,1.56-1.56h26.91q12.6065,0,20.2148,7.0195,7.6055,7.0211,7.6045,18.7207v39.5195q0,11.7-7.6045,18.7207t-20.2148,7.02h-26.91A1.4961,1.4961,0,0,1,479.2412,518.3293Zm15.2754-12.5449,12.8692-.13a11.37,11.37,0,0,0,8.9707-3.835q3.3778-3.8334,3.64-10.4648V455.2141q0-6.63-3.4443-10.5293a11.629,11.629,0,0,0-9.166-3.9H494.5166a.5745.5745,0,0,0-.65.65V505.134A.5734.5734,0,0,0,494.5166,505.7844Z"/><path class="cls-1" d="M592.1065,428.24a1.5046,1.5046,0,0,1,1.1054-.4551h11.96a1.5538,1.5538,0,0,1,1.56,1.56v87.8809a1.5538,1.5538,0,0,1-1.56,1.56h-12.61a2.0059,2.0059,0,0,1-1.82-1.17l-28.34-58.24c-.1738-.26-.3467-.3672-.5195-.3252-.1748.0449-.26.24-.26.585l.13,57.5908a1.5538,1.5538,0,0,1-1.56,1.56H548.2315a1.5538,1.5538,0,0,1-1.56-1.56V429.3439a1.5538,1.5538,0,0,1,1.56-1.56h12.48a1.8426,1.8426,0,0,1,1.82,1.17l28.47,58.5c.1728.26.3447.37.5205.3252.1719-.043.26-.2373.26-.585l-.1309-57.8506A1.5011,1.5011,0,0,1,592.1065,428.24Z"/><path class="cls-1" d="M639.8555,518.1994a1.4958,1.4958,0,0,1-.4551-1.1055v-35.1l-.13-.78-22.49-51.6094a1.8043,1.8043,0,0,1-.13-.78q0-1.0386,1.3-1.04h12.74a1.7031,1.7031,0,0,1,1.82,1.17l14.04,35.1q.39.9111.78,0l13.91-35.1a1.7013,1.7013,0,0,1,1.8194-1.17h12.87c.6055,0,.9951.1748,1.17.5195a1.681,1.681,0,0,1,0,1.3008l-22.62,51.6094-.13.78v35.1a1.5539,1.5539,0,0,1-1.56,1.5606H640.96A1.4967,1.4967,0,0,1,639.8555,518.1994Z"/><path class="cls-1" d="M44.9151,582.0344a23.06,23.06,0,0,1,8.9707,9.5547A30.3529,30.3529,0,0,1,57.07,605.6945a28.8828,28.8828,0,0,1-3.1845,13.78,22.8984,22.8984,0,0,1-8.9707,9.2949A26.063,26.063,0,0,1,31.72,632.0842H15.73a.5746.5746,0,0,0-.6494.65v35.49a1.5538,1.5538,0,0,1-1.56,1.56H1.56a1.4967,1.4967,0,0,1-1.1045-.4551A1.4951,1.4951,0,0,1,0,668.2248V580.2141A1.5013,1.5013,0,0,1,.4551,579.11a1.504,1.504,0,0,1,1.1045-.4551H31.5908A25.9294,25.9294,0,0,1,44.9151,582.0344Zm-6.3692,34.125q3.4423-3.8336,3.4444-10.2051,0-6.5-3.4444-10.4a11.6313,11.6313,0,0,0-9.166-3.8994H15.73a.5739.5739,0,0,0-.6494.6494v27.04a.5734.5734,0,0,0,.6494.65H29.38A11.72,11.72,0,0,0,38.5459,616.1594Z"/><path class="cls-1" d="M108.34,668.4846,94.3,631.174c-.1748-.3447-.39-.5195-.65-.5195H82.47a.5742.5742,0,0,0-.65.6494v36.9209a1.5538,1.5538,0,0,1-1.56,1.56H68.3a1.5539,1.5539,0,0,1-1.5605-1.56V580.3439A1.5539,1.5539,0,0,1,68.3,578.7844H98.33A25.7074,25.7074,0,0,1,111.46,582.1a22.4851,22.4851,0,0,1,8.84,9.3594,29.7578,29.7578,0,0,1,3.12,13.8447,27.1428,27.1428,0,0,1-3.8994,14.69,21.3039,21.3039,0,0,1-10.66,8.84.6181.6181,0,0,0-.3906.91l15.34,38.22a1.8288,1.8288,0,0,1,.1309.78c0,.6944-.4356,1.04-1.3008,1.04H110.16A1.7109,1.7109,0,0,1,108.34,668.4846Zm-26.52-76.05v25.8691a.5737.5737,0,0,0,.65.65H96.12a11.4076,11.4076,0,0,0,8.84-3.7051q3.3779-3.7045,3.38-9.8144,0-6.24-3.38-9.9453a11.4073,11.4073,0,0,0-8.84-3.7051H82.47A.5748.5748,0,0,0,81.8194,592.4348Z"/><path class="cls-1" d="M181.8135,668.4846l-3.3789-13.91a.6174.6174,0,0,0-.65-.52h-26.78a.614.614,0,0,0-.6494.52l-3.25,13.91a1.7116,1.7116,0,0,1-1.82,1.3h-12.35q-1.6918,0-1.3008-1.6905l23.66-88.01a1.712,1.712,0,0,1,1.82-1.3h14.82a1.713,1.713,0,0,1,1.8193,1.3l23.66,88.01.13.5206q0,1.17-1.43,1.17h-12.48A1.7109,1.7109,0,0,1,181.8135,668.4846ZM153.6045,642.03a.8577.8577,0,0,0,.5195.1953h20.54a.8736.8736,0,0,0,.52-.1953.4774.4774,0,0,0,.1289-.585l-10.66-42.6406c-.0859-.26-.2168-.39-.3886-.39-.1758,0-.3047.13-.3907.39l-10.4,42.6406A.4715.4715,0,0,0,153.6045,642.03Z"/><path class="cls-1" d="M217.042,667.3791a24.6408,24.6408,0,0,1-10.0742-9.6846,28.4974,28.4974,0,0,1-3.5752-14.43V605.0441a28.1463,28.1463,0,0,1,3.5752-14.3652,24.37,24.37,0,0,1,10.0742-9.5547,31.9459,31.9459,0,0,1,14.9512-3.38,32.461,32.461,0,0,1,14.9492,3.3155,24.2091,24.2091,0,0,1,10.0752,9.3593,27.2087,27.2087,0,0,1,3.5752,14.1055v.7793a1.73,1.73,0,0,1-.4551,1.1709,1.4179,1.4179,0,0,1-1.1054.5195l-12.09.5205a1.38,1.38,0,0,1-1.56-1.5605v-1.56a13.4891,13.4891,0,0,0-3.7051-9.88,12.9767,12.9767,0,0,0-9.6836-3.7705,13.1458,13.1458,0,0,0-9.8164,3.7705,13.4962,13.4962,0,0,0-3.7041,9.88v39.9092a12.7363,12.7363,0,0,0,13.52,13.52,13.0974,13.0974,0,0,0,9.6836-3.7051,13.2623,13.2623,0,0,0,3.7051-9.8154v-1.6894q0-1.43,1.56-1.43l12.09.5195a1.5539,1.5539,0,0,1,1.56,1.5605v.52a27.9023,27.9023,0,0,1-3.5752,14.2353,23.9556,23.9556,0,0,1-10.0752,9.4893,32.4623,32.4623,0,0,1-14.9492,3.3154A31.4308,31.4308,0,0,1,217.042,667.3791Z"/><path class="cls-1" d="M284.16,667.4445a24.6288,24.6288,0,0,1-10.14-9.9453,30.1236,30.1236,0,0,1-3.5752-14.8847v-36.66a29.8614,29.8614,0,0,1,3.5752-14.7549,24.6294,24.6294,0,0,1,10.14-9.9453,34.711,34.711,0,0,1,30.42,0,25.0662,25.0662,0,0,1,10.2051,9.9453,29.4688,29.4688,0,0,1,3.64,14.7549v36.66a29.7262,29.7262,0,0,1-3.64,14.8847,25.0656,25.0656,0,0,1-10.2051,9.9453,34.711,34.711,0,0,1-30.42,0ZM309.5108,653.86a14.8836,14.8836,0,0,0,3.834-10.5948v-37.7a15.0661,15.0661,0,0,0-3.834-10.7255,13.3274,13.3274,0,0,0-10.2051-4.0948,12.9529,12.9529,0,0,0-10.01,4.0948q-3.7734,4.0956-3.7705,10.7255v37.7a15.0168,15.0168,0,0,0,3.7705,10.5948,12.9528,12.9528,0,0,0,10.01,4.0947A13.3273,13.3273,0,0,0,309.5108,653.86Z"/><path class="cls-1" d="M340.5264,669.3293a1.4951,1.4951,0,0,1-.4551-1.1045V580.3439a1.5539,1.5539,0,0,1,1.5606-1.5595h26.91q12.608,0,20.2149,7.0195,7.6055,7.021,7.6054,18.7207v39.5195q0,11.7-7.6054,18.7207t-20.2149,7.02h-26.91A1.4973,1.4973,0,0,1,340.5264,669.3293Zm15.2754-12.5449,12.87-.13a11.3678,11.3678,0,0,0,8.97-3.835q3.38-3.8334,3.6407-10.4648V606.2141q0-6.63-3.4454-10.5293a11.6253,11.6253,0,0,0-9.165-3.9h-12.87a.5748.5748,0,0,0-.65.65V656.134A.5737.5737,0,0,0,355.8018,656.7844Z"/><path class="cls-1" d="M452.5479,668.4846l-3.3809-13.91a.6164.6164,0,0,0-.6494-.52h-26.78a.615.615,0,0,0-.65.52l-3.25,13.91a1.7111,1.7111,0,0,1-1.8193,1.3H403.667q-1.69,0-1.2988-1.6905l23.6592-88.01a1.7127,1.7127,0,0,1,1.82-1.3H442.667a1.7134,1.7134,0,0,1,1.82,1.3l23.66,88.01.13.5206q0,1.17-1.43,1.17H454.3682A1.71,1.71,0,0,1,452.5479,668.4846ZM424.3369,642.03a.8648.8648,0,0,0,.52.1953h20.54a.8664.8664,0,0,0,.5195-.1953.4766.4766,0,0,0,.1309-.585l-10.66-42.6406q-.1318-.39-.3906-.39c-.1738,0-.3047.13-.39.39L424.208,641.4445A.4725.4725,0,0,0,424.3369,642.03Z"/><path class="cls-1" d="M485.7354,668.4846l-20.541-88.01v-.52q0-1.17,1.4306-1.17h12.4795a1.5592,1.5592,0,0,1,1.69,1.43l12.09,56.81c.085.26.2158.39.39.39s.3028-.1729.3907-.52l11.18-56.6806a1.4666,1.4666,0,0,1,1.6894-1.43h11.3106a1.5577,1.5577,0,0,1,1.6894,1.43l12.0908,56.81c.085.3467.2158.5195.39.5195s.3027-.1728.3906-.5195l11.4395-56.81a1.5566,1.5566,0,0,1,1.6894-1.43h11.9609q1.8193,0,1.43,1.69l-19.37,87.88a1.5579,1.5579,0,0,1-1.69,1.43H526.1651a1.5558,1.5558,0,0,1-1.6905-1.43l-11.96-58.63c-.0879-.2607-.2168-.3906-.39-.3906q-.2622,0-.39.3906l-11.3106,58.63a1.4666,1.4666,0,0,1-1.6894,1.43H487.4248A1.63,1.63,0,0,1,485.7354,668.4846Z"/><path class="cls-1" d="M579.1006,667.3791a24.64,24.64,0,0,1-10.0762-9.6846,28.5071,28.5071,0,0,1-3.5742-14.43V605.0441a28.1558,28.1558,0,0,1,3.5742-14.3652,24.37,24.37,0,0,1,10.0762-9.5547,31.935,31.935,0,0,1,14.9492-3.38A32.465,32.465,0,0,1,609,581.06a24.2025,24.2025,0,0,1,10.0752,9.3593,27.1987,27.1987,0,0,1,3.5742,14.1055v.7793a1.7334,1.7334,0,0,1-.4541,1.1709,1.4192,1.4192,0,0,1-1.1054.5195l-12.09.5205a1.3789,1.3789,0,0,1-1.5595-1.5605v-1.56a13.4932,13.4932,0,0,0-3.7051-9.88,12.9827,12.9827,0,0,0-9.6856-3.7705,13.1412,13.1412,0,0,0-9.8144,3.7705,13.4891,13.4891,0,0,0-3.7051,9.88v39.9092a12.7376,12.7376,0,0,0,13.5195,13.52,13.1035,13.1035,0,0,0,9.6856-3.7051,13.2662,13.2662,0,0,0,3.7051-9.8154v-1.6894q0-1.43,1.5595-1.43l12.09.5195a1.5522,1.5522,0,0,1,1.56,1.5605v.52a27.8918,27.8918,0,0,1-3.5742,14.2353A23.9492,23.9492,0,0,1,609,667.509a32.4662,32.4662,0,0,1-14.95,3.3154A31.42,31.42,0,0,1,579.1006,667.3791Z"/><path class="cls-1" d="M678.5879,668.4846l-3.38-13.91a.6174.6174,0,0,0-.65-.52H647.7783a.6148.6148,0,0,0-.65.52l-3.25,13.91a1.7117,1.7117,0,0,1-1.82,1.3h-12.35q-1.69,0-1.3-1.6905l23.6592-88.01a1.7127,1.7127,0,0,1,1.82-1.3h14.82a1.7133,1.7133,0,0,1,1.82,1.3l23.66,88.01.1289.5206q0,1.17-1.43,1.17h-12.48A1.711,1.711,0,0,1,678.5879,668.4846ZM650.378,642.03a.8619.8619,0,0,0,.5195.1953h20.541a.8707.8707,0,0,0,.5195-.1953.4775.4775,0,0,0,.13-.585l-10.66-42.6406c-.087-.26-.2178-.39-.39-.39q-.2622,0-.3906.39l-10.3994,42.6406A.4726.4726,0,0,0,650.378,642.03Z"/></g></g></svg>