<svg xmlns="http://www.w3.org/2000/svg" width="859.9656" height="675.2153" viewBox="0 0 859.9656 675.2153"><defs><style>.cls-1{fill:#fff;}</style></defs><title>1Zasób 2zrównoważony-ikona</title><g id="Warstwa_2" data-name="Warstwa 2"><g id="Warstwa_1-2" data-name="Warstwa 1"><path class="cls-1" d="M435.9394,219.3484S446.3674,186.817,460.21,176.92c13.8461-9.9084,26.4828-32.1754,27.0829-49.0282,0,0-7.8237,19.2687-19.2594,26.189-8.7259,5.2754-26.1261,18.7924-34.5885,31.3173-3.5641-43.234-8.7435-93.0146-8.7435-93.0146-2.2569,12.6913-5.7017,68.8348-8.726,124.9209-3.4586-4.521-7.4425-8.0816-11.738-9.3629-12.05-3.615-21.666-11.4385-54.7677-39.7224,3.615,12.0338,24.6791,39.7224,41.5309,49.3489,9.766,5.5795,18.1045,19.1363,23.404,29.5478-2.7005,52.2445-4.7475,97.3331-4.7475,97.3331s3.6057,9.1383,9.6274,10.3588c6.02,1.223,19.8621-5.1813,19.8621-5.1813s-2.4074-77.8871-2.4074-109.7554C436.7392,234.8458,436.44,227.747,435.9394,219.3484Z"/><path class="cls-1" d="M370.0863,238.0309c2.2549,11.2868,4.0625,31.1436,37.0134,27.5331C407.1,265.564,408.4487,230.8082,370.0863,238.0309Z"/><path class="cls-1" d="M342.0964,231.2567c14.9,0,44.6864-5.8635,44.6864-5.8635s-30.245-41.08-78.9846-22.5711C310.9518,215.9127,327.2046,231.2567,342.0964,231.2567Z"/><path class="cls-1" d="M341.6488,184.7647s-5.4159-9.0264-20.3171-11.1466A34.5624,34.5624,0,0,0,296.51,179.35C310.9518,196.9512,341.6488,184.7647,341.6488,184.7647Z"/><path class="cls-1" d="M382.724,136.9209s-14.4481,34.7566,0,46.4911C397.1663,195.15,407.1026,202.37,407.1026,202.37S431.925,161.2938,382.724,136.9209Z"/><path class="cls-1" d="M481.1268,214.6462c-27.9851,3.701-34.7566,45.95-34.7566,45.95,9.2539-9.952,23.0185-1.8047,40.9226-3.6058,17.9038-1.81,36.261-28.51,36.261-28.51S509.1112,210.9451,481.1268,214.6462Z"/><path class="cls-1" d="M500.5351,191.5417s-40.7959-12.4224-56.4246,22.5932C461.715,210.042,482.0293,221.78,500.5351,191.5417Z"/><path class="cls-1" d="M506.8544,210.5115c12.1876,5.4012,36.5633,10.0573,40.6287-8.7445C547.4831,201.767,523.5538,191.5812,506.8544,210.5115Z"/><path class="cls-1" d="M519.9442,149.5605c-31.5966,0-44.6864,27.081-44.6864,27.081,13.5392-4.964,37.0163,10.38,51.9072,12.2383,14.8955,1.8518,31.6-15.6212,31.6-15.6212S551.5446,149.5605,519.9442,149.5605Z"/><path class="cls-1" d="M363.6153,168.2189c5.1164-8.7307,15.6434-27.3853,6.471-41.53C370.0863,126.6889,340.7475,135.7153,363.6153,168.2189Z"/><path class="cls-1" d="M347.2933,163.7S360.9027,111.04,293.2,111.6417C293.8,129.0972,301.477,176.3419,347.2933,163.7Z"/><path class="cls-1" d="M329.0083,62.8919s-11.7408,25.8828-5.7193,34.9073c6.02,9.0284,25.123,18.3562,25.123,18.3562S348.5672,80.9465,329.0083,62.8919Z"/><path class="cls-1" d="M339.5417,33.1028C337.44,57.1745,354.59,68.0092,371.7384,68.6093c17.1551.6038,27.0821,6.9222,27.0821,6.9222a51.815,51.815,0,0,0-8.4228-24.6736C382.2746,38.52,361.8106,32.2,339.5417,33.1028Z"/><path class="cls-1" d="M472.3233,97.7992c-11.81-15.6453-33.1767-15.3457-33.1767-15.3457s-8.1268,29.4933,0,37.6192c8.1259,8.1213,26.1835,18.6519,24.9777,29.4878C470.1441,137.8222,484.1335,113.4464,472.3233,97.7992Z"/><path class="cls-1" d="M500.5351,141.4327c39.4359,1.0577,43.932-7.22,55.5953-17.1514C516.9349,114.35,500.5351,141.4327,500.5351,141.4327Z"/><path class="cls-1" d="M490.3021,120.0727c51.1648,0,51.5512-58.6833,51.5512-58.6833s-10.6268-7.2206-36.8091,4.5137C478.8692,77.6412,490.3021,120.0727,490.3021,120.0727Z"/><path class="cls-1" d="M424.4018,85.7654S480.9651,55.07,435.5317,0c0,0-33.9977,21.9656-33.9977,50.2523C401.534,78.5427,424.4018,85.7654,424.4018,85.7654Z"/><path class="cls-1" d="M396.4165,0s-16.8545,24.9779-3.9117,42.8846C401.8362,24.6755,407.2469,15.3476,396.4165,0Z"/><path class="cls-1" d="M476.9184,86.9662s40.7663-30.6932-8.885-61.9911C463.5252,34.9047,452.9984,64.3989,476.9184,86.9662Z"/><path class="cls-1" d="M352.4792,75.5315c2.71,18.3588,9.76,35.2087,16.6151,40.6239,6.8582,5.4179,40.2632,20.4612,42.0672,33.4051C411.1615,149.5605,432.8246,80.9465,352.4792,75.5315Z"/><path class="cls-1" d="M444.1105,163.0987c10.9376-19.0025-2.86-32.7986-2.86-32.7986C430.723,137.5219,436.44,153.1689,444.1105,163.0987Z"/><path class="cls-1" d="M.4551,522.59A1.4951,1.4951,0,0,1,0,521.4858v-10.79a3.8639,3.8639,0,0,1,.52-1.95l36.53-62.92q.39-.7808-.52-.78H1.56A1.4962,1.4962,0,0,1,.4551,444.59,1.4951,1.4951,0,0,1,0,443.4858v-9.8809a1.5011,1.5011,0,0,1,.4551-1.1044,1.5035,1.5035,0,0,1,1.1049-.4551H52.13a1.5538,1.5538,0,0,1,1.56,1.56v10.79a3.8739,3.8739,0,0,1-.52,1.95l-36.53,62.92q-.39.7807.52.78H52.13a1.5538,1.5538,0,0,1,1.56,1.56v9.8809a1.5538,1.5538,0,0,1-1.56,1.56H1.56A1.4962,1.4962,0,0,1,.4551,522.59Z"/><path class="cls-1" d="M105.56,521.7456,91.52,484.435c-.1748-.3447-.39-.5195-.65-.5195h-11.18a.5739.5739,0,0,0-.65.6494v36.9209a1.5537,1.5537,0,0,1-1.56,1.56h-11.96a1.5537,1.5537,0,0,1-1.56-1.56V433.6049a1.5537,1.5537,0,0,1,1.56-1.56H95.55a25.71,25.71,0,0,1,13.13,3.3154,22.4857,22.4857,0,0,1,8.84,9.3594,29.7578,29.7578,0,0,1,3.12,13.8447,27.1387,27.1387,0,0,1-3.9,14.69,21.3,21.3,0,0,1-10.66,8.84.6183.6183,0,0,0-.39.91l15.34,38.22a1.8467,1.8467,0,0,1,.13.78c0,.6944-.4346,1.04-1.3,1.04H107.38A1.7105,1.7105,0,0,1,105.56,521.7456Zm-26.52-76.05v25.8691a.5734.5734,0,0,0,.65.65H93.34a11.4076,11.4076,0,0,0,8.84-3.7051q3.3786-3.7045,3.38-9.8144,0-6.24-3.38-9.9453a11.4073,11.4073,0,0,0-8.84-3.7051h-13.65A.5745.5745,0,0,0,79.04,445.6958Z"/><path class="cls-1" d="M143.7261,520.7055a24.6324,24.6324,0,0,1-10.14-9.9453,30.1277,30.1277,0,0,1-3.5747-14.8847v-36.66a29.8654,29.8654,0,0,1,3.5747-14.7549,24.633,24.633,0,0,1,10.14-9.9453,34.711,34.711,0,0,1,30.42,0,25.0723,25.0723,0,0,1,10.2051,9.9453,29.4639,29.4639,0,0,1,3.64,14.7549v36.66a29.7213,29.7213,0,0,1-3.64,14.8847,25.0717,25.0717,0,0,1-10.2051,9.9453,34.711,34.711,0,0,1-30.42,0Zm25.35-13.5849a14.8824,14.8824,0,0,0,3.8349-10.5948v-37.7A15.0648,15.0648,0,0,0,169.0762,448.1a13.3246,13.3246,0,0,0-10.2051-4.0948,12.9536,12.9536,0,0,0-10.01,4.0948q-3.7726,4.0956-3.77,10.7255v37.7a15.0188,15.0188,0,0,0,3.77,10.5948,12.9536,12.9536,0,0,0,10.01,4.0947A13.3245,13.3245,0,0,0,169.0762,507.1206Zm-17.4849-83.7852a1.4277,1.4277,0,0,1,.13-1.3l7.41-13.3906a2.1477,2.1477,0,0,1,1.95-1.0391h9.75a1.2871,1.2871,0,0,1,1.2349.584,1.2692,1.2692,0,0,1-.1948,1.3652l-9.23,13.26a2.0355,2.0355,0,0,1-1.82,1.041h-8.06Q151.85,423.8559,151.5913,423.3354Z"/><path class="cls-1" d="M214.8481,521.7456l-20.54-88.01v-.52c0-.78.4751-1.17,1.43-1.17h12.48a1.5591,1.5591,0,0,1,1.69,1.43l12.09,56.81q.1282.39.39.39.2584,0,.39-.52l11.18-56.6806a1.4664,1.4664,0,0,1,1.69-1.43h11.31a1.5588,1.5588,0,0,1,1.69,1.43l12.09,56.81c.0849.3467.2153.5195.39.5195s.3028-.1728.39-.5195l11.44-56.81a1.5568,1.5568,0,0,1,1.69-1.43h11.96q1.8194,0,1.43,1.69l-19.37,87.88a1.5576,1.5576,0,0,1-1.69,1.43h-11.7a1.5556,1.5556,0,0,1-1.69-1.43l-11.96-58.63q-.1311-.3911-.39-.3906-.2622,0-.39.3906l-11.31,58.63a1.4664,1.4664,0,0,1-1.69,1.43h-11.31A1.6305,1.6305,0,0,1,214.8481,521.7456Z"/><path class="cls-1" d="M343.0405,432.5005a1.5037,1.5037,0,0,1,1.105-.4551h11.96a1.5538,1.5538,0,0,1,1.56,1.56v87.8809a1.5538,1.5538,0,0,1-1.56,1.56h-12.61a2.0042,2.0042,0,0,1-1.82-1.17l-28.34-58.24c-.1748-.26-.3471-.3672-.52-.3252-.1748.0449-.26.24-.26.585l.13,57.5908a1.5537,1.5537,0,0,1-1.56,1.56h-11.96a1.5537,1.5537,0,0,1-1.56-1.56V433.6049a1.5537,1.5537,0,0,1,1.56-1.56h12.48a1.8414,1.8414,0,0,1,1.82,1.17l28.47,58.5c.1729.26.3453.37.52.3252.1728-.043.26-.2373.26-.585l-.13-57.8506A1.5011,1.5011,0,0,1,343.0405,432.5005Z"/><path class="cls-1" d="M382.9761,520.7055a24.6324,24.6324,0,0,1-10.14-9.9453,30.1277,30.1277,0,0,1-3.5747-14.8847v-36.66a29.8654,29.8654,0,0,1,3.5747-14.7549,24.633,24.633,0,0,1,10.14-9.9453,34.711,34.711,0,0,1,30.42,0,25.0723,25.0723,0,0,1,10.2051,9.9453,29.4639,29.4639,0,0,1,3.64,14.7549v36.66a29.7213,29.7213,0,0,1-3.64,14.8847,25.0717,25.0717,0,0,1-10.2051,9.9453,34.711,34.711,0,0,1-30.42,0Zm25.35-13.5849a14.8824,14.8824,0,0,0,3.8349-10.5948v-37.7A15.0648,15.0648,0,0,0,408.3262,448.1a13.3246,13.3246,0,0,0-10.2051-4.0948,12.9536,12.9536,0,0,0-10.01,4.0948q-3.7726,4.0956-3.77,10.7255v37.7a15.0188,15.0188,0,0,0,3.77,10.5948,12.9536,12.9536,0,0,0,10.01,4.0947A13.3245,13.3245,0,0,0,408.3262,507.1206Z"/><path class="cls-1" d="M454.0976,521.7456l-20.54-88.01v-.52c0-.78.4751-1.17,1.43-1.17h12.48a1.5591,1.5591,0,0,1,1.69,1.43l12.09,56.81q.1283.39.39.39.2585,0,.39-.52l11.18-56.6806a1.4665,1.4665,0,0,1,1.69-1.43h11.31a1.5589,1.5589,0,0,1,1.69,1.43l12.09,56.81c.0849.3467.2153.5195.39.5195s.3028-.1728.39-.5195l11.44-56.81a1.5569,1.5569,0,0,1,1.69-1.43h11.96q1.8193,0,1.43,1.69l-19.37,87.88a1.5575,1.5575,0,0,1-1.69,1.43h-11.7a1.5556,1.5556,0,0,1-1.69-1.43l-11.96-58.63q-.1311-.3911-.39-.3906-.2622,0-.39.3906l-11.31,58.63a1.4664,1.4664,0,0,1-1.69,1.43h-11.31A1.6305,1.6305,0,0,1,454.0976,521.7456Z"/><path class="cls-1" d="M574.6592,521.7456l-3.38-13.91a.6169.6169,0,0,0-.65-.52h-26.78a.6144.6144,0,0,0-.65.52l-3.25,13.91a1.7114,1.7114,0,0,1-1.82,1.3h-12.35q-1.6913,0-1.3-1.69l23.66-88.01a1.7125,1.7125,0,0,1,1.82-1.3h14.82a1.7132,1.7132,0,0,1,1.82,1.3l23.66,88.01.13.5206q0,1.17-1.43,1.17H576.48A1.7105,1.7105,0,0,1,574.6592,521.7456Zm-28.21-26.4551a.8613.8613,0,0,0,.52.1953h20.54a.87.87,0,0,0,.52-.1953.4771.4771,0,0,0,.13-.585l-10.66-42.6406c-.0869-.26-.2173-.39-.39-.39q-.2622,0-.39.39l-10.4,42.6406A.4721.4721,0,0,0,546.4492,495.2905Z"/><path class="cls-1" d="M598.3564,522.59a1.495,1.495,0,0,1-.455-1.1045v-10.79a3.8639,3.8639,0,0,1,.52-1.95l36.53-62.92q.39-.7808-.52-.78h-34.97a1.5537,1.5537,0,0,1-1.56-1.56v-9.8809a1.5537,1.5537,0,0,1,1.56-1.56h50.57a1.5538,1.5538,0,0,1,1.56,1.56v10.79a3.8739,3.8739,0,0,1-.52,1.95l-36.53,62.92q-.39.7807.52.78h34.97a1.5538,1.5538,0,0,1,1.56,1.56v9.8809a1.5538,1.5538,0,0,1-1.56,1.56h-50.57A1.4964,1.4964,0,0,1,598.3564,522.59Zm19.8252-102.2451a9.2328,9.2328,0,0,1,6.63-15.86,8.7656,8.7656,0,0,1,6.565,2.6006,9.1094,9.1094,0,0,1,2.5351,6.63,8.9786,8.9786,0,0,1-2.6,6.63,8.814,8.814,0,0,1-6.5,2.6006A8.97,8.97,0,0,1,618.1816,420.3452Z"/><path class="cls-1" d="M673.5478,520.7055a24.6327,24.6327,0,0,1-10.14-9.9453,30.1277,30.1277,0,0,1-3.5747-14.8847v-36.66a29.8654,29.8654,0,0,1,3.5747-14.7549,24.6333,24.6333,0,0,1,10.14-9.9453,34.7112,34.7112,0,0,1,30.42,0,25.0715,25.0715,0,0,1,10.205,9.9453,29.4639,29.4639,0,0,1,3.64,14.7549v36.66a29.7213,29.7213,0,0,1-3.64,14.8847,25.0708,25.0708,0,0,1-10.205,9.9453,34.7112,34.7112,0,0,1-30.42,0Zm25.35-13.5849a14.882,14.882,0,0,0,3.835-10.5948v-37.7a15.0645,15.0645,0,0,0-3.835-10.7255,13.3242,13.3242,0,0,0-10.205-4.0948,12.9536,12.9536,0,0,0-10.01,4.0948q-3.7726,4.0956-3.77,10.7255v37.7a15.0188,15.0188,0,0,0,3.77,10.5948,12.9536,12.9536,0,0,0,10.01,4.0947A13.3241,13.3241,0,0,0,698.8979,507.1206Z"/><path class="cls-1" d="M774.8428,432.5005a1.5035,1.5035,0,0,1,1.1049-.4551h11.96a1.5538,1.5538,0,0,1,1.56,1.56v87.8809a1.5538,1.5538,0,0,1-1.56,1.56h-12.61a2.0043,2.0043,0,0,1-1.82-1.17l-28.34-58.24c-.1748-.26-.3472-.3672-.52-.3252-.1748.0449-.26.24-.26.585l.13,57.5908a1.5538,1.5538,0,0,1-1.56,1.56h-11.96a1.5538,1.5538,0,0,1-1.56-1.56V433.6049a1.5538,1.5538,0,0,1,1.56-1.56h12.48a1.8415,1.8415,0,0,1,1.82,1.17l28.47,58.5c.1728.26.3452.37.52.3252.1729-.043.26-.2373.26-.585l-.13-57.8506A1.5011,1.5011,0,0,1,774.8428,432.5005Z"/><path class="cls-1" d="M822.5908,522.46a1.4958,1.4958,0,0,1-.4551-1.1055v-35.1l-.13-.78-22.49-51.6094a1.7957,1.7957,0,0,1-.13-.78q0-1.0386,1.3-1.04h12.74a1.7038,1.7038,0,0,1,1.82,1.17l14.04,35.1q.39.9111.78,0l13.91-35.1a1.7013,1.7013,0,0,1,1.82-1.17h12.87c.6055,0,.9951.1748,1.17.52a1.681,1.681,0,0,1,0,1.3008l-22.62,51.6094-.13.78v35.1a1.5539,1.5539,0,0,1-1.56,1.5606h-11.83A1.4962,1.4962,0,0,1,822.5908,522.46Z"/><path class="cls-1" d="M259.6255,672.7456l-14.04-37.3106c-.1748-.3447-.39-.5195-.65-.5195h-11.18a.5738.5738,0,0,0-.65.6494v36.9209a1.5538,1.5538,0,0,1-1.56,1.56h-11.96a1.5538,1.5538,0,0,1-1.56-1.56V584.6049a1.5538,1.5538,0,0,1,1.56-1.56h30.03a25.71,25.71,0,0,1,13.13,3.3154,22.4851,22.4851,0,0,1,8.84,9.3594,29.7578,29.7578,0,0,1,3.12,13.8447,27.1387,27.1387,0,0,1-3.9,14.69,21.3,21.3,0,0,1-10.66,8.84.6182.6182,0,0,0-.39.91l15.34,38.22a1.8451,1.8451,0,0,1,.13.78c0,.6944-.4346,1.04-1.3,1.04h-12.48A1.7105,1.7105,0,0,1,259.6255,672.7456Zm-26.52-76.05v25.8691a.5733.5733,0,0,0,.65.65h13.65a11.4075,11.4075,0,0,0,8.84-3.7051q3.3786-3.7046,3.38-9.8144,0-6.24-3.38-9.9453a11.4072,11.4072,0,0,0-8.84-3.7051h-13.65A.5745.5745,0,0,0,233.1055,596.6958Z"/><path class="cls-1" d="M297.792,671.7055a24.633,24.633,0,0,1-10.14-9.9453,30.1288,30.1288,0,0,1-3.5747-14.8847v-36.66a29.8665,29.8665,0,0,1,3.5747-14.7549,24.6336,24.6336,0,0,1,10.14-9.9453,34.711,34.711,0,0,1,30.42,0A25.0723,25.0723,0,0,1,338.417,595.46a29.4639,29.4639,0,0,1,3.64,14.7549v36.66a29.7213,29.7213,0,0,1-3.64,14.8847,25.0717,25.0717,0,0,1-10.2051,9.9453,34.711,34.711,0,0,1-30.42,0Zm25.35-13.5849a14.882,14.882,0,0,0,3.8349-10.5948v-37.7A15.0644,15.0644,0,0,0,323.1421,599.1a13.3244,13.3244,0,0,0-10.2051-4.0948,12.9536,12.9536,0,0,0-10.01,4.0948q-3.7727,4.0956-3.77,10.7255v37.7a15.0188,15.0188,0,0,0,3.77,10.5948,12.9536,12.9536,0,0,0,10.01,4.0947A13.3243,13.3243,0,0,0,323.1421,658.1206Z"/><path class="cls-1" d="M350.4668,673.59a1.4951,1.4951,0,0,1-.4551-1.1045v-10.79a3.8649,3.8649,0,0,1,.52-1.95l36.53-62.92q.39-.7808-.52-.78h-34.97a1.5538,1.5538,0,0,1-1.56-1.56v-9.8809a1.5538,1.5538,0,0,1,1.56-1.56h50.57a1.5537,1.5537,0,0,1,1.56,1.56v10.79a3.8739,3.8739,0,0,1-.52,1.95l-36.53,62.92q-.39.7808.52.78h34.97a1.5537,1.5537,0,0,1,1.56,1.56v9.8809a1.5537,1.5537,0,0,1-1.56,1.56h-50.57A1.4962,1.4962,0,0,1,350.4668,673.59Z"/><path class="cls-1" d="M432.2231,672.7456l-20.54-88.01v-.5205c0-.78.4751-1.17,1.43-1.17h12.48a1.5591,1.5591,0,0,1,1.69,1.43l12.09,56.8105q.1283.39.39.39.2585,0,.39-.52l11.18-56.6806a1.4664,1.4664,0,0,1,1.69-1.43h11.31a1.5588,1.5588,0,0,1,1.69,1.43l12.09,56.8105c.0849.3467.2153.5195.39.5195s.3028-.1728.39-.5195l11.44-56.8105a1.5568,1.5568,0,0,1,1.69-1.43h11.96q1.8194,0,1.43,1.69l-19.37,87.88a1.5576,1.5576,0,0,1-1.69,1.43h-11.7a1.5556,1.5556,0,0,1-1.69-1.43l-11.96-58.63q-.1311-.3911-.39-.3906-.2622,0-.39.3906l-11.31,58.63a1.4664,1.4664,0,0,1-1.69,1.43h-11.31A1.6305,1.6305,0,0,1,432.2231,672.7456Z"/><path class="cls-1" d="M525.5889,671.7055a24.6324,24.6324,0,0,1-10.14-9.9453,30.1277,30.1277,0,0,1-3.5747-14.8847v-36.66a29.8654,29.8654,0,0,1,3.5747-14.7549,24.633,24.633,0,0,1,10.14-9.9453,34.711,34.711,0,0,1,30.42,0,25.0723,25.0723,0,0,1,10.2051,9.9453,29.4649,29.4649,0,0,1,3.64,14.7549v36.66a29.7223,29.7223,0,0,1-3.64,14.8847,25.0717,25.0717,0,0,1-10.2051,9.9453,34.711,34.711,0,0,1-30.42,0Zm25.35-13.5849a14.8824,14.8824,0,0,0,3.8349-10.5948v-37.7A15.0648,15.0648,0,0,0,550.939,599.1a13.3246,13.3246,0,0,0-10.2051-4.0948,12.9536,12.9536,0,0,0-10.01,4.0948q-3.7727,4.0956-3.77,10.7255v37.7a15.0188,15.0188,0,0,0,3.77,10.5948,12.9536,12.9536,0,0,0,10.01,4.0947A13.3245,13.3245,0,0,0,550.939,658.1206Zm-17.4849-83.7852a1.4277,1.4277,0,0,1,.13-1.3l7.41-13.3906a2.1475,2.1475,0,0,1,1.95-1.0391h9.75a1.2871,1.2871,0,0,1,1.2349.584,1.2692,1.2692,0,0,1-.1948,1.3652l-9.23,13.26a2.0355,2.0355,0,0,1-1.82,1.041h-8.06Q533.7129,574.8559,533.4541,574.3354Z"/><path class="cls-1" d="M585.8428,667.935q-7.5411-7.1469-7.54-18.9795v-9.1006a1.5538,1.5538,0,0,1,1.56-1.56h11.96a1.5538,1.5538,0,0,1,1.56,1.56v9.2305a13.0064,13.0064,0,0,0,3.4448,9.4248,12.1311,12.1311,0,0,0,9.1651,3.5752,12.7908,12.7908,0,0,0,9.36-3.5752,12.6211,12.6211,0,0,0,3.64-9.4248V584.6049a1.5537,1.5537,0,0,1,1.56-1.56h11.83a1.5538,1.5538,0,0,1,1.56,1.56v64.3506a26.3621,26.3621,0,0,1-3.51,13.7149,23.7664,23.7664,0,0,1-9.88,9.165,31.59,31.59,0,0,1-14.56,3.25Q593.3818,675.0854,585.8428,667.935Z"/></g></g></svg>